<?xml version="1.0" standalone="no"?>
<!DOCTYPE svg PUBLIC "-//W3C//DTD SVG 20010904//EN"
 "http://www.w3.org/TR/2001/REC-SVG-20010904/DTD/svg10.dtd">
<svg version="1.0" xmlns="http://www.w3.org/2000/svg"
 width="801.000000pt" height="356.000000pt" viewBox="0 0 801.000000 356.000000"
 preserveAspectRatio="xMidYMid meet">

<g transform="translate(0.000000,356.000000) scale(0.100000,-0.100000)"
fill="#000000" stroke="none">
<path d="M5274 2457 c-2 -7 -3 -69 -2 -138 l3 -124 121 -3 c114 -2 122 -4 144
-27 13 -14 27 -25 32 -25 13 0 10 304 -4 318 -18 18 -287 17 -294 -1z"/>
<path d="M1397 2330 c-203 -52 -317 -237 -317 -514 0 -201 46 -333 145 -425
31 -28 80 -60 113 -73 51 -20 73 -23 202 -23 125 1 153 4 204 23 33 12 64 26
70 32 11 11 -9 179 -23 193 -5 5 -28 -1 -51 -13 -23 -12 -74 -28 -114 -36
-218 -46 -318 71 -303 355 8 152 32 214 100 265 45 33 181 35 275 4 55 -19 72
-21 76 -11 10 25 29 183 23 190 -30 29 -318 53 -400 33z"/>
<path d="M6087 2212 l-87 -87 0 -245 0 -245 168 -168 167 -167 250 0 250 0
-290 290 -290 290 203 203 c111 111 202 206 202 210 0 4 -109 7 -243 7 l-242
0 -88 -88z"/>
<path d="M2133 2092 c-151 -54 -230 -172 -241 -359 -11 -203 50 -342 182 -411
47 -25 60 -27 171 -27 111 0 124 2 171 27 67 35 137 115 165 186 28 71 38 247
19 331 -26 115 -90 200 -185 242 -70 32 -209 37 -282 11z m192 -176 c45 -29
59 -72 63 -191 5 -128 -7 -182 -48 -228 -26 -29 -33 -32 -88 -32 -50 0 -65 4
-87 25 -41 38 -58 116 -53 234 6 120 29 178 81 202 38 17 98 12 132 -10z"/>
<path d="M3038 2096 c-20 -7 -55 -28 -77 -45 l-41 -33 0 41 0 41 -59 0 c-32 0
-79 -3 -105 -6 l-46 -7 0 -393 0 -394 105 0 105 0 0 298 0 299 28 12 c15 7 52
15 83 18 48 5 60 2 78 -16 20 -20 21 -28 21 -316 l0 -295 105 0 105 0 0 295 0
295 26 17 c15 9 52 19 84 21 49 4 61 1 79 -17 20 -20 21 -29 21 -316 l0 -295
105 0 105 0 0 308 c0 346 -5 384 -62 439 -45 43 -96 63 -165 63 -77 0 -121
-14 -182 -55 l-50 -35 -20 29 c-39 55 -157 78 -243 47z"/>
<path d="M4932 2090 c-23 -10 -58 -31 -77 -46 l-35 -26 0 41 0 41 -62 0 c-35
0 -80 -3 -100 -6 l-38 -7 0 -393 0 -394 100 0 100 0 0 296 0 295 46 21 c36 15
61 19 106 16 97 -7 93 7 96 -333 l3 -295 99 0 100 0 0 324 0 324 -28 53 c-23
45 -37 59 -81 82 -68 34 -163 37 -229 7z"/>
<path d="M3882 2093 l-23 -5 3 -321 c3 -307 4 -324 25 -362 44 -83 104 -115
213 -115 76 0 123 15 177 56 l33 25 0 -35 0 -36 105 0 105 0 0 400 0 400 -67
0 c-38 0 -85 -3 -105 -6 l-38 -7 0 -297 0 -298 -31 -11 c-18 -6 -61 -11 -96
-11 -55 0 -68 4 -88 25 l-25 24 0 291 0 290 -82 -1 c-46 -1 -93 -4 -106 -6z"/>
<path d="M5370 1700 l0 -400 105 0 105 0 -2 398 -3 397 -102 3 -103 3 0 -401z"/>
</g>
</svg>
