<svg id="svg" version="1.1" xmlns="http://www.w3.org/2000/svg" xmlns:xlink="http://www.w3.org/1999/xlink" width="400" height="177.77777777777777" viewBox="0, 0, 400,177.77777777777777"><g id="svgg"><path id="path0" d="M263.763 55.052 C 263.615 55.200,263.605 67.601,263.752 67.985 C 263.848 68.234,264.529 68.267,269.588 68.267 L 275.316 68.267 276.585 69.511 C 277.283 70.196,277.937 70.756,278.038 70.756 C 278.320 70.756,278.291 55.429,278.009 55.147 C 277.777 54.915,263.992 54.823,263.763 55.052 M72.178 61.185 C 71.738 61.274,70.978 61.415,70.489 61.499 C 69.599 61.651,68.467 61.990,67.467 62.404 C 66.493 62.807,64.624 63.701,64.533 63.807 C 64.484 63.864,64.164 64.054,63.822 64.228 C 63.480 64.402,62.920 64.788,62.578 65.085 C 60.694 66.721,60.214 67.191,59.606 68.000 C 59.239 68.489,58.893 68.929,58.837 68.978 C 58.782 69.027,58.545 69.387,58.311 69.778 C 58.077 70.169,57.832 70.529,57.767 70.578 C 57.701 70.627,57.592 70.847,57.523 71.067 C 57.454 71.287,57.324 71.467,57.232 71.467 C 57.141 71.467,57.067 71.580,57.067 71.719 C 57.067 71.858,56.933 72.238,56.770 72.563 C 56.607 72.889,56.400 73.304,56.312 73.486 C 55.736 74.666,54.836 77.951,54.577 79.822 C 54.489 80.458,54.333 81.257,54.230 81.599 C 53.981 82.430,53.983 91.976,54.232 92.801 C 54.335 93.143,54.491 93.982,54.577 94.667 C 54.664 95.351,54.856 96.391,55.004 96.978 C 55.151 97.564,55.360 98.404,55.468 98.844 C 55.576 99.284,55.740 99.720,55.832 99.813 C 55.925 99.906,56.000 100.120,56.000 100.288 C 56.000 100.456,56.116 100.820,56.258 101.097 C 56.400 101.374,56.685 101.960,56.892 102.400 C 58.216 105.221,60.553 108.087,62.667 109.483 C 63.058 109.741,63.418 109.993,63.467 110.043 C 64.178 110.768,67.898 112.279,70.489 112.895 C 73.919 113.711,80.946 113.480,84.978 112.418 C 85.516 112.277,86.276 112.078,86.667 111.976 C 87.548 111.747,88.115 111.513,89.644 110.746 L 90.844 110.145 90.844 108.976 C 90.844 108.334,90.724 107.347,90.578 106.784 C 90.431 106.221,90.310 105.424,90.308 105.014 C 90.307 104.603,90.190 103.947,90.050 103.556 C 89.909 103.164,89.790 102.557,89.786 102.205 C 89.773 101.156,89.120 100.104,88.801 100.620 C 88.678 100.819,86.193 102.044,85.913 102.044 C 85.812 102.044,85.500 102.164,85.220 102.310 C 84.940 102.456,84.544 102.576,84.341 102.577 C 84.137 102.577,83.910 102.638,83.837 102.711 C 83.150 103.398,76.481 104.074,74.510 103.656 C 72.860 103.307,71.777 102.907,70.933 102.334 C 69.862 101.606,68.800 100.604,68.800 100.319 C 68.800 100.193,68.736 100.089,68.657 100.089 C 68.379 100.089,66.844 96.763,66.844 96.160 C 66.844 95.961,66.747 95.624,66.629 95.411 C 66.510 95.197,66.353 94.542,66.280 93.956 C 66.207 93.369,66.068 92.329,65.972 91.644 C 65.750 90.075,65.753 83.994,65.975 82.578 C 66.068 81.991,66.209 81.029,66.289 80.439 C 66.369 79.849,66.527 79.194,66.640 78.984 C 66.752 78.773,66.844 78.442,66.844 78.248 C 66.844 78.054,66.953 77.669,67.087 77.392 C 67.220 77.115,67.557 76.409,67.835 75.822 C 68.764 73.866,70.213 72.352,71.911 71.566 C 72.302 71.385,72.759 71.170,72.927 71.088 C 74.015 70.555,78.872 70.468,81.244 70.938 C 81.684 71.025,82.524 71.184,83.111 71.291 C 83.698 71.398,84.254 71.561,84.347 71.654 C 84.440 71.746,84.697 71.822,84.918 71.822 C 85.140 71.822,85.584 71.936,85.905 72.074 C 86.226 72.213,86.781 72.453,87.138 72.607 C 88.014 72.987,88.291 72.962,88.438 72.489 C 88.609 71.936,89.040 69.514,89.253 67.912 C 89.350 67.180,89.507 66.300,89.603 65.957 C 89.698 65.614,89.776 64.848,89.777 64.255 L 89.778 63.176 88.489 62.768 C 86.206 62.046,84.127 61.584,82.489 61.433 C 81.951 61.384,80.991 61.263,80.356 61.164 C 78.949 60.946,73.285 60.960,72.178 61.185 M304.132 67.476 L 300.089 71.486 300.091 83.876 L 300.092 96.267 308.237 104.489 L 316.381 112.711 328.680 112.711 L 340.980 112.711 326.757 98.491 C 316.159 87.896,312.533 84.167,312.533 83.862 C 312.533 83.465,318.929 76.800,319.310 76.800 C 319.396 76.800,319.467 76.680,319.467 76.533 C 319.467 76.387,319.587 76.267,319.733 76.267 C 319.880 76.267,320.000 76.200,320.000 76.119 C 320.000 75.914,322.121 73.778,322.324 73.778 C 322.415 73.778,322.489 73.712,322.489 73.632 C 322.489 73.437,329.608 66.311,329.803 66.311 C 329.887 66.311,329.956 66.236,329.956 66.144 C 329.956 66.052,330.533 65.412,331.239 64.722 L 332.521 63.467 320.348 63.467 L 308.175 63.467 304.132 67.476 M108.711 72.828 C 105.076 73.741,103.117 74.693,100.744 76.699 C 99.603 77.664,97.361 80.681,96.706 82.133 C 96.034 83.623,95.629 84.739,95.513 85.422 C 95.463 85.716,95.359 86.036,95.282 86.133 C 94.470 87.163,94.368 96.739,95.137 99.822 C 95.234 100.213,95.380 100.813,95.462 101.156 C 96.138 104.004,97.906 107.134,99.938 109.083 C 101.903 110.969,103.696 111.922,107.216 112.953 C 109.793 113.708,116.326 113.420,118.667 112.447 C 118.862 112.366,119.382 112.159,119.822 111.988 C 122.198 111.065,124.787 108.998,126.525 106.637 C 126.945 106.066,127.289 105.558,127.289 105.507 C 127.289 105.457,127.474 105.117,127.699 104.752 C 127.925 104.387,128.289 103.649,128.509 103.111 C 128.728 102.573,128.975 101.973,129.057 101.778 C 129.264 101.283,129.627 99.967,129.806 99.067 C 129.888 98.651,130.031 97.931,130.123 97.467 C 130.785 94.123,130.101 85.982,128.919 83.144 C 128.805 82.869,128.711 82.589,128.711 82.522 C 128.711 82.313,127.563 80.092,127.422 80.030 C 127.349 79.997,127.289 79.891,127.289 79.794 C 127.289 79.305,124.147 75.853,123.378 75.497 C 123.231 75.429,122.871 75.218,122.578 75.028 C 121.534 74.352,119.448 73.422,118.973 73.422 C 118.788 73.422,118.577 73.362,118.504 73.289 C 117.893 72.679,110.661 72.338,108.711 72.828 M153.244 72.811 C 152.902 72.941,152.481 73.051,152.309 73.057 C 152.136 73.062,151.856 73.140,151.686 73.230 C 151.517 73.320,151.018 73.568,150.578 73.780 C 150.138 73.993,149.361 74.479,148.852 74.861 C 148.343 75.243,147.886 75.556,147.838 75.556 C 147.789 75.556,147.405 75.875,146.986 76.264 C 145.730 77.431,145.422 77.097,145.422 74.566 L 145.422 73.067 143.067 73.070 C 141.771 73.072,139.671 73.191,138.400 73.335 C 137.129 73.479,135.949 73.597,135.778 73.598 C 135.483 73.600,135.467 74.650,135.467 93.156 L 135.467 112.711 140.533 112.711 L 145.600 112.711 145.606 98.089 C 145.610 86.866,145.662 83.405,145.828 83.200 C 146.123 82.836,147.980 81.973,149.333 81.571 C 150.382 81.260,154.031 81.248,154.338 81.556 C 154.460 81.678,154.686 81.778,154.840 81.778 C 155.164 81.778,155.663 82.309,156.175 83.200 C 156.525 83.807,156.535 84.167,156.589 98.267 L 156.645 112.711 161.611 112.711 L 166.578 112.711 166.578 98.173 C 166.578 81.718,166.419 83.261,168.204 82.369 C 170.422 81.261,174.551 80.791,175.320 81.560 C 175.440 81.680,175.662 81.779,175.813 81.781 C 176.114 81.784,176.615 82.279,177.161 83.111 C 177.501 83.629,177.513 84.068,177.561 98.178 L 177.612 112.711 182.682 112.711 L 187.751 112.711 187.689 97.289 C 187.641 85.524,187.573 81.698,187.402 81.156 C 187.278 80.764,187.048 80.004,186.889 79.467 C 186.269 77.361,183.927 74.345,182.666 74.028 C 182.422 73.967,182.222 73.862,182.222 73.795 C 182.222 73.677,181.389 73.385,179.378 72.799 C 177.576 72.273,172.655 72.579,170.933 73.324 C 170.640 73.451,170.060 73.700,169.644 73.878 C 169.229 74.056,168.889 74.257,168.889 74.325 C 168.889 74.392,168.749 74.494,168.578 74.552 C 168.071 74.722,167.287 75.313,165.767 76.672 L 165.014 77.345 164.634 76.850 C 163.291 75.102,162.630 74.311,162.513 74.311 C 162.439 74.311,162.223 74.170,162.034 73.998 C 161.644 73.644,160.703 73.230,159.344 72.815 C 158.182 72.460,154.179 72.458,153.244 72.811 M248.089 72.873 C 246.782 73.229,244.176 74.506,243.421 75.161 C 240.667 77.551,240.533 77.524,240.533 74.566 L 240.533 73.067 238.190 73.067 C 236.901 73.067,235.161 73.145,234.323 73.240 C 233.485 73.336,232.340 73.461,231.778 73.520 L 230.756 73.626 230.756 93.168 L 230.756 112.711 235.726 112.711 L 240.696 112.711 240.591 98.267 C 240.472 82.004,240.370 83.329,241.804 82.652 C 243.234 81.978,243.676 81.800,244.178 81.695 C 244.471 81.634,245.111 81.499,245.600 81.395 C 247.840 80.921,251.142 81.451,252.162 82.449 C 253.339 83.600,253.333 83.514,253.333 98.898 L 253.333 112.711 258.222 112.711 L 263.111 112.711 263.103 97.111 C 263.097 83.990,263.055 81.398,262.839 80.800 C 262.698 80.409,262.582 79.948,262.580 79.775 C 262.579 79.603,262.503 79.323,262.411 79.153 C 262.320 78.983,262.060 78.445,261.833 77.958 C 261.303 76.814,260.012 75.283,258.826 74.391 C 256.673 72.773,251.268 72.008,248.089 72.873 M195.467 73.253 C 194.978 73.335,194.198 73.451,193.733 73.512 L 192.889 73.622 192.892 88.144 C 192.894 100.208,192.938 102.847,193.152 103.733 C 193.294 104.320,193.412 105.055,193.416 105.367 C 193.419 105.679,193.493 105.979,193.580 106.032 C 193.667 106.086,193.790 106.351,193.853 106.621 C 193.992 107.215,194.527 108.333,194.711 108.415 C 194.784 108.447,194.844 108.553,194.844 108.649 C 194.844 108.831,195.624 109.921,196.092 110.394 C 197.089 111.401,198.441 112.177,200.622 112.994 C 201.911 113.476,207.306 113.476,208.622 112.993 C 210.585 112.275,212.089 111.597,212.089 111.432 C 212.089 111.353,212.189 111.287,212.311 111.285 C 212.433 111.283,213.081 110.838,213.749 110.295 C 215.336 109.007,215.467 109.068,215.467 111.106 L 215.467 112.711 220.533 112.711 L 225.600 112.711 225.600 92.869 L 225.600 73.027 221.822 73.131 C 218.185 73.231,215.951 73.411,215.740 73.623 C 215.685 73.678,215.587 80.381,215.524 88.518 L 215.408 103.312 214.733 103.656 C 214.362 103.845,213.911 104.000,213.732 104.000 C 213.552 104.000,213.322 104.082,213.222 104.182 C 212.910 104.494,209.954 104.745,208.025 104.623 C 205.570 104.468,204.554 103.981,203.577 102.489 L 203.111 101.778 203.022 87.467 L 202.933 73.156 199.644 73.130 C 197.836 73.116,195.956 73.172,195.467 73.253 M268.385 73.363 C 268.320 73.428,268.267 82.308,268.267 93.096 L 268.267 112.711 273.333 112.711 L 278.400 112.711 278.400 93.191 C 278.400 78.246,278.350 73.621,278.187 73.458 C 277.955 73.226,268.612 73.136,268.385 73.363 M114.722 81.187 C 116.249 81.679,118.400 83.538,118.400 84.366 C 118.400 84.428,118.508 84.732,118.640 85.040 C 119.343 86.678,119.610 88.859,119.612 92.978 C 119.615 98.604,119.052 100.987,117.229 103.071 C 116.782 103.582,116.303 104.000,116.164 104.000 C 116.025 104.000,115.911 104.078,115.911 104.174 C 115.911 104.270,115.691 104.401,115.422 104.466 C 115.153 104.530,114.821 104.671,114.684 104.780 C 114.323 105.066,110.307 105.045,110.018 104.756 C 109.896 104.633,109.686 104.533,109.553 104.533 C 108.717 104.533,106.532 102.169,106.268 100.978 C 106.214 100.733,106.086 100.293,105.984 100.000 C 105.280 97.979,104.923 90.635,105.422 88.444 C 105.511 88.053,105.631 87.493,105.689 87.200 C 106.067 85.289,106.944 83.486,108.004 82.438 C 109.386 81.073,112.546 80.484,114.722 81.187 " stroke="none" fill="#233169" fill-rule="evenodd"></path><path id="path1" d="M40.292 45.422 C 40.145 45.569,39.930 45.689,39.814 45.689 C 39.508 45.689,38.222 47.021,38.222 47.338 C 38.222 47.486,38.102 47.652,37.956 47.709 C 37.720 47.799,37.689 52.292,37.689 86.661 C 37.689 121.076,37.719 125.511,37.956 125.511 C 38.133 125.511,38.222 125.689,38.222 126.044 C 38.222 126.400,38.311 126.578,38.489 126.578 C 38.636 126.578,38.756 126.698,38.756 126.844 C 38.756 126.991,38.836 127.111,38.933 127.111 C 39.140 127.111,39.822 127.759,39.822 127.956 C 39.822 128.092,39.911 128.117,40.544 128.156 C 40.745 128.168,40.859 128.260,40.797 128.360 C 40.735 128.460,40.751 128.531,40.831 128.517 C 40.912 128.503,43.038 128.501,45.556 128.512 L 50.133 128.533 50.133 135.472 C 50.133 141.476,50.169 142.425,50.400 142.513 C 50.547 142.570,50.667 142.772,50.667 142.963 C 50.667 143.154,50.738 143.266,50.826 143.212 C 50.913 143.157,51.032 143.236,51.090 143.386 C 51.261 143.833,54.590 143.726,54.709 143.269 C 54.757 143.087,54.867 142.981,54.954 143.035 C 55.040 143.088,55.111 143.007,55.111 142.855 C 55.111 142.702,55.231 142.578,55.378 142.578 C 55.524 142.578,55.644 142.458,55.644 142.311 C 55.644 142.164,55.764 142.044,55.911 142.044 C 56.058 142.044,56.178 141.924,56.178 141.778 C 56.178 141.631,56.302 141.511,56.455 141.511 C 56.607 141.511,56.683 141.431,56.622 141.333 C 56.562 141.236,56.619 141.156,56.750 141.156 C 57.013 141.156,57.600 140.540,57.600 140.265 C 57.600 140.168,57.720 140.089,57.867 140.089 C 58.013 140.089,58.133 140.009,58.133 139.911 C 58.133 139.681,58.792 139.022,59.022 139.022 C 59.120 139.022,59.200 138.902,59.200 138.756 C 59.200 138.609,59.286 138.489,59.390 138.489 C 59.637 138.489,60.089 138.037,60.089 137.790 C 60.089 137.686,60.209 137.600,60.356 137.600 C 60.502 137.600,60.622 137.520,60.622 137.422 C 60.622 137.192,61.281 136.533,61.511 136.533 C 61.609 136.533,61.689 136.413,61.689 136.267 C 61.689 136.120,61.768 136.000,61.865 136.000 C 62.140 136.000,62.756 135.413,62.756 135.150 C 62.756 135.019,62.836 134.962,62.933 135.022 C 63.031 135.083,63.111 135.007,63.111 134.855 C 63.111 134.702,63.231 134.578,63.378 134.578 C 63.524 134.578,63.644 134.458,63.644 134.311 C 63.644 134.164,63.764 134.044,63.911 134.044 C 64.058 134.044,64.178 133.924,64.178 133.778 C 64.178 133.631,64.302 133.511,64.455 133.511 C 64.607 133.511,64.688 133.440,64.635 133.354 C 64.581 133.267,64.696 133.154,64.891 133.104 C 65.085 133.053,65.244 132.879,65.244 132.717 C 65.244 132.556,65.324 132.473,65.422 132.533 C 65.520 132.594,65.600 132.518,65.600 132.366 C 65.600 132.214,65.720 132.089,65.867 132.089 C 66.013 132.089,66.133 131.969,66.133 131.822 C 66.133 131.676,66.253 131.556,66.400 131.556 C 66.547 131.556,66.667 131.436,66.667 131.289 C 66.667 131.142,66.791 131.022,66.944 131.022 C 67.096 131.022,67.172 130.942,67.111 130.844 C 67.051 130.747,67.108 130.667,67.239 130.667 C 67.502 130.667,68.089 130.052,68.089 129.776 C 68.089 129.679,68.291 129.600,68.539 129.600 C 68.786 129.600,69.035 129.480,69.091 129.333 C 69.148 129.187,69.385 129.067,69.619 129.067 C 69.879 129.067,70.044 128.963,70.044 128.800 C 70.044 128.563,85.954 128.533,212.163 128.533 C 303.928 128.533,354.302 128.472,354.341 128.361 C 354.373 128.266,354.600 128.155,354.844 128.114 C 355.089 128.074,355.269 127.951,355.244 127.842 C 355.220 127.733,355.320 127.644,355.467 127.644 C 355.613 127.644,355.733 127.524,355.733 127.378 C 355.733 127.231,355.853 127.111,356.000 127.111 C 356.147 127.111,356.267 126.991,356.267 126.844 C 356.267 126.698,356.387 126.578,356.533 126.578 C 356.680 126.578,356.800 126.466,356.800 126.330 C 356.800 126.194,356.919 126.037,357.065 125.981 C 357.470 125.825,357.473 47.865,357.067 47.709 C 356.920 47.653,356.800 47.486,356.800 47.338 C 356.800 46.989,355.500 45.689,355.151 45.689 C 355.003 45.689,354.836 45.569,354.780 45.422 C 354.624 45.016,40.698 45.016,40.292 45.422 M278.344 54.787 L 278.756 55.173 278.756 62.887 C 278.756 72.458,278.839 72.205,276.433 69.956 L 275.007 68.622 269.384 68.622 C 264.402 68.622,263.724 68.589,263.436 68.328 C 262.882 67.826,262.941 55.284,263.500 54.762 C 264.129 54.177,277.718 54.199,278.344 54.787 M300.089 62.696 C 300.138 67.015,300.221 70.592,300.275 70.645 C 300.328 70.699,302.128 68.985,304.273 66.838 L 308.175 62.933 320.566 62.933 C 329.332 62.933,332.992 62.990,333.077 63.127 C 333.146 63.239,328.872 67.653,322.998 73.536 C 317.389 79.154,312.824 83.846,312.854 83.964 C 312.884 84.082,319.306 90.567,327.125 98.376 C 338.583 109.819,341.303 112.623,341.138 112.821 C 340.968 113.026,338.885 113.067,328.601 113.067 L 316.267 113.067 313.289 110.066 C 311.651 108.416,307.998 104.734,305.171 101.883 C 302.344 99.033,299.962 96.724,299.877 96.752 C 299.793 96.780,296.103 100.422,291.678 104.846 C 287.252 109.270,283.534 112.889,283.416 112.889 C 283.179 112.889,283.084 55.108,283.320 54.872 C 283.386 54.806,287.166 54.773,291.720 54.798 L 300.000 54.844 300.089 62.696 M78.844 60.633 C 81.301 60.835,83.850 61.200,85.600 61.600 C 86.187 61.735,86.867 61.881,87.111 61.926 C 88.269 62.140,89.927 62.910,90.036 63.285 C 90.202 63.858,89.554 69.769,89.247 70.489 C 89.163 70.684,89.050 71.280,88.996 71.813 C 88.884 72.907,88.352 73.667,87.966 73.282 C 87.848 73.164,87.639 73.067,87.502 73.067 C 87.366 73.067,87.002 72.955,86.694 72.818 C 84.897 72.019,83.176 71.608,79.467 71.092 C 74.780 70.441,71.142 71.572,69.111 74.311 C 68.194 75.549,67.041 78.188,67.028 79.078 C 67.025 79.305,66.926 79.665,66.809 79.878 C 66.692 80.092,66.535 80.947,66.459 81.778 C 66.383 82.609,66.241 84.177,66.143 85.262 C 66.023 86.588,66.023 87.843,66.144 89.085 C 66.243 90.101,66.389 91.653,66.468 92.533 C 66.547 93.413,66.704 94.359,66.817 94.634 C 66.930 94.909,67.022 95.320,67.022 95.547 C 67.022 95.774,67.142 96.189,67.288 96.469 C 67.434 96.749,67.554 97.105,67.554 97.261 C 67.555 97.417,67.754 97.897,67.997 98.328 C 68.240 98.759,68.514 99.271,68.606 99.467 C 68.980 100.262,70.831 101.954,71.831 102.417 C 73.478 103.178,73.620 103.199,77.244 103.199 C 80.678 103.200,81.475 103.111,83.111 102.541 C 83.404 102.439,83.905 102.317,84.224 102.269 C 84.543 102.222,84.847 102.112,84.901 102.025 C 84.955 101.938,85.114 101.867,85.254 101.867 C 85.503 101.867,87.640 100.949,88.178 100.611 C 89.174 99.986,89.730 100.040,89.871 100.775 C 89.921 101.033,90.053 101.604,90.164 102.044 C 90.276 102.484,90.431 103.324,90.509 103.911 C 90.586 104.498,90.731 105.498,90.830 106.133 C 91.477 110.280,91.473 110.303,90.004 111.008 C 89.440 111.279,88.765 111.613,88.506 111.750 C 88.246 111.888,87.886 112.003,87.706 112.006 C 87.525 112.009,87.222 112.129,87.033 112.272 C 86.843 112.416,86.439 112.533,86.135 112.533 C 85.831 112.533,85.506 112.609,85.413 112.702 C 85.234 112.881,84.263 113.077,81.244 113.546 C 78.730 113.936,74.377 113.942,72.178 113.558 C 69.114 113.024,68.565 112.903,68.379 112.717 C 68.278 112.616,67.977 112.533,67.710 112.533 C 67.444 112.533,67.105 112.413,66.959 112.267 C 66.812 112.120,66.578 112.000,66.438 112.000 C 65.276 112.000,60.915 108.821,59.200 106.725 C 58.403 105.750,57.778 104.914,57.778 104.822 C 57.778 104.764,57.458 104.195,57.067 103.556 C 56.676 102.917,56.356 102.290,56.356 102.164 C 56.356 102.038,56.238 101.779,56.095 101.590 C 55.951 101.400,55.831 101.111,55.828 100.948 C 55.825 100.785,55.707 100.425,55.566 100.148 C 55.338 99.699,55.095 98.896,54.578 96.889 C 53.228 91.641,53.323 82.740,54.793 76.859 C 54.919 76.354,55.082 75.881,55.156 75.807 C 55.229 75.734,55.289 75.530,55.289 75.354 C 55.289 75.178,55.418 74.732,55.575 74.362 C 56.245 72.789,56.371 72.500,56.667 71.867 C 56.838 71.500,57.158 70.952,57.378 70.650 C 57.598 70.347,57.778 70.043,57.778 69.973 C 57.778 69.449,61.454 65.323,62.373 64.815 C 62.534 64.726,62.707 64.596,62.756 64.527 C 62.903 64.319,65.104 63.014,65.867 62.683 C 67.420 62.007,67.677 61.907,68.533 61.643 C 71.918 60.596,74.877 60.307,78.844 60.633 M115.644 72.341 C 117.076 72.477,118.581 72.797,119.153 73.088 C 119.323 73.174,119.550 73.244,119.658 73.244 C 120.046 73.244,122.212 74.342,123.409 75.144 C 125.877 76.800,127.952 79.575,129.233 82.933 C 129.645 84.011,129.830 84.606,129.953 85.244 C 130.029 85.636,130.176 86.356,130.281 86.844 C 131.045 90.424,131.013 95.647,130.209 98.886 C 130.070 99.447,129.953 100.087,129.950 100.308 C 129.947 100.530,129.827 100.866,129.683 101.056 C 129.540 101.246,129.422 101.537,129.422 101.703 C 129.422 101.868,129.303 102.233,129.157 102.513 C 129.011 102.793,128.891 103.156,128.890 103.319 C 128.889 103.481,128.829 103.641,128.756 103.674 C 128.682 103.707,128.430 104.133,128.195 104.622 C 127.224 106.645,123.788 110.397,122.125 111.251 C 121.690 111.475,121.213 111.726,121.067 111.809 C 120.810 111.955,120.296 112.188,118.906 112.787 C 118.549 112.941,118.105 113.067,117.920 113.067 C 117.734 113.067,117.506 113.137,117.413 113.223 C 116.906 113.692,111.048 114.145,109.874 113.806 C 109.528 113.706,108.724 113.546,108.089 113.451 C 106.802 113.258,105.568 112.962,105.105 112.735 C 104.752 112.562,103.679 112.084,103.289 111.926 C 103.142 111.867,102.782 111.660,102.489 111.467 C 102.196 111.273,101.839 111.059,101.697 110.991 C 100.931 110.624,97.778 107.492,97.778 107.097 C 97.778 106.958,97.703 106.844,97.612 106.844 C 97.521 106.844,97.390 106.668,97.322 106.453 C 97.253 106.237,97.088 105.952,96.954 105.818 C 96.821 105.684,96.711 105.460,96.711 105.321 C 96.711 105.181,96.631 105.067,96.533 105.067 C 96.436 105.067,96.356 104.979,96.356 104.871 C 96.356 104.764,96.246 104.424,96.113 104.116 C 95.155 101.902,94.840 100.734,94.404 97.778 C 94.193 96.344,94.193 89.828,94.404 88.622 C 95.002 85.207,95.631 83.354,97.091 80.711 C 98.856 77.514,103.924 73.244,105.953 73.244 C 106.111 73.244,106.316 73.180,106.409 73.100 C 107.198 72.426,112.207 72.015,115.644 72.341 M160.089 72.621 C 161.115 73.031,161.619 73.282,162.222 73.683 C 162.905 74.136,164.443 75.723,164.450 75.981 C 164.475 76.846,164.944 76.841,165.996 75.965 C 167.075 75.068,169.462 73.422,169.686 73.422 C 169.756 73.422,170.065 73.312,170.373 73.177 C 172.355 72.311,172.588 72.274,176.197 72.272 C 178.513 72.271,179.767 72.338,179.931 72.470 C 180.067 72.580,180.439 72.726,180.758 72.794 C 182.882 73.248,186.844 76.804,186.844 78.257 C 186.844 78.396,186.962 78.665,187.105 78.855 C 187.249 79.045,187.370 79.360,187.375 79.556 C 187.379 79.751,187.520 80.271,187.688 80.711 C 188.079 81.735,188.281 112.354,187.901 112.812 C 187.682 113.076,178.180 113.210,177.526 112.959 C 177.272 112.862,177.244 111.426,177.244 98.549 C 177.244 82.640,177.286 83.206,176.046 82.357 C 174.093 81.021,169.396 81.555,167.220 83.361 C 166.964 83.574,166.931 85.070,166.890 98.288 L 166.844 112.978 161.956 113.028 C 159.267 113.055,156.887 113.034,156.667 112.980 L 156.267 112.882 156.257 98.708 C 156.246 83.116,156.285 83.703,155.162 82.513 C 153.894 81.168,150.343 81.292,147.244 82.789 L 145.956 83.411 145.956 98.039 C 145.956 110.216,145.915 112.701,145.712 112.870 C 145.539 113.013,143.997 113.059,140.423 113.025 L 135.378 112.978 135.378 93.156 L 135.378 73.333 136.178 73.188 C 137.698 72.911,145.439 72.682,145.709 72.906 C 145.887 73.053,145.956 73.573,145.956 74.777 C 145.956 76.418,146.055 76.672,146.521 76.213 C 147.724 75.025,150.555 73.265,152.178 72.697 C 153.802 72.128,158.738 72.081,160.089 72.621 M255.822 72.628 C 256.262 72.780,256.874 73.021,257.182 73.164 C 257.491 73.306,257.831 73.422,257.938 73.422 C 258.045 73.422,258.133 73.483,258.133 73.557 C 258.133 73.631,258.393 73.805,258.711 73.944 C 259.442 74.263,261.375 76.204,261.704 76.948 C 261.841 77.258,262.014 77.511,262.088 77.511 C 262.162 77.511,262.222 77.599,262.222 77.706 C 262.222 77.814,262.329 78.154,262.460 78.462 C 262.942 79.601,263.159 80.291,263.335 81.244 C 263.626 82.831,263.714 112.735,263.428 112.917 C 263.166 113.083,253.684 113.122,253.259 112.959 C 253.006 112.862,252.978 111.500,252.978 99.388 C 252.978 83.934,252.936 83.417,251.607 82.421 C 249.783 81.055,244.293 81.482,241.689 83.193 L 240.978 83.660 240.978 98.141 C 240.978 106.106,240.913 112.722,240.834 112.844 C 240.649 113.131,231.096 113.166,230.566 112.883 C 230.229 112.702,230.222 112.295,230.222 93.145 L 230.222 73.592 230.622 73.438 C 231.653 73.042,233.102 72.905,236.800 72.854 L 240.800 72.800 240.852 74.483 C 240.918 76.632,240.949 76.642,242.995 75.126 C 244.844 73.757,246.188 73.001,247.137 72.798 C 247.465 72.728,247.815 72.604,247.916 72.524 C 248.438 72.106,254.546 72.187,255.822 72.628 M203.164 72.924 C 203.327 73.087,203.378 76.484,203.378 87.127 C 203.378 100.158,203.399 101.164,203.694 101.803 C 204.156 102.806,204.500 103.289,204.754 103.289 C 204.877 103.289,204.978 103.361,204.978 103.450 C 204.978 104.125,209.972 104.644,211.822 104.162 C 212.213 104.060,212.813 103.916,213.156 103.841 C 213.498 103.767,213.938 103.618,214.133 103.510 C 214.329 103.403,214.629 103.272,214.800 103.219 C 215.093 103.128,215.111 102.265,215.114 88.406 C 215.117 72.841,215.089 73.371,215.911 73.161 C 216.619 72.979,225.312 72.631,225.674 72.770 C 226.105 72.935,226.106 112.793,225.674 112.959 C 225.107 113.176,215.550 113.079,215.324 112.853 C 215.195 112.724,215.111 112.095,215.111 111.253 C 215.111 109.881,215.002 109.656,214.546 110.091 C 213.990 110.623,212.822 111.467,212.641 111.467 C 212.533 111.467,212.444 111.539,212.444 111.627 C 212.444 111.715,212.224 111.874,211.956 111.980 C 211.687 112.086,211.347 112.241,211.200 112.325 C 208.297 113.988,202.581 114.465,200.314 113.234 C 200.144 113.142,199.859 113.067,199.681 113.067 C 199.503 113.067,199.202 112.949,199.012 112.806 C 198.822 112.662,198.561 112.542,198.431 112.539 C 197.491 112.516,194.941 109.826,193.995 107.858 C 192.664 105.092,192.708 105.751,192.710 88.598 L 192.711 73.285 193.289 73.156 C 194.942 72.788,202.843 72.603,203.164 72.924 M278.648 73.170 C 278.707 73.325,278.756 82.323,278.756 93.167 L 278.756 112.882 278.356 112.980 C 278.136 113.034,275.756 113.055,273.067 113.028 L 268.178 112.978 268.132 93.156 C 268.107 82.253,268.124 73.233,268.171 73.111 C 268.313 72.737,278.504 72.795,278.648 73.170 M112.487 81.173 C 112.435 81.224,111.848 81.343,111.183 81.437 C 108.294 81.846,106.524 84.019,105.908 87.911 C 105.011 93.581,105.969 100.836,107.889 102.911 C 110.478 105.709,116.756 104.961,117.765 101.733 C 117.834 101.513,117.965 101.333,118.056 101.333 C 118.148 101.333,118.222 101.176,118.222 100.984 C 118.222 100.792,118.334 100.372,118.470 100.050 C 119.302 98.086,119.621 90.898,119.010 87.872 C 118.712 86.395,118.199 84.591,118.036 84.444 C 117.981 84.396,117.765 84.072,117.554 83.726 C 116.783 82.455,115.519 81.645,114.044 81.475 C 113.556 81.419,113.026 81.307,112.868 81.226 C 112.710 81.145,112.538 81.121,112.487 81.173 " stroke="none" fill="#f8f8f8" fill-rule="evenodd"></path><path id="path2" d="M283.378 83.644 C 283.378 109.634,283.403 112.178,283.661 112.178 C 283.817 112.178,287.501 108.618,291.847 104.267 C 296.193 99.916,299.825 96.356,299.917 96.356 C 300.019 96.356,300.102 91.467,300.131 83.733 C 300.157 76.791,300.118 71.111,300.044 71.111 C 299.971 71.111,299.911 67.511,299.911 63.111 L 299.911 55.111 291.644 55.111 L 283.378 55.111 283.378 83.644 " stroke="none" fill="#36a44e" fill-rule="evenodd"></path><path id="path3" d="M263.500 54.762 C 262.941 55.284,262.882 67.826,263.436 68.328 C 263.724 68.589,264.402 68.622,269.384 68.622 L 275.007 68.622 276.433 69.956 C 278.839 72.205,278.756 72.458,278.756 62.887 L 278.756 55.173 278.344 54.787 C 277.718 54.199,264.129 54.177,263.500 54.762 M278.193 54.991 L 278.582 55.405 278.535 63.125 C 278.481 72.221,278.625 71.764,276.452 69.696 L 275.137 68.444 269.524 68.442 C 266.301 68.440,263.798 68.367,263.644 68.271 C 263.212 67.998,263.148 55.383,263.577 54.910 C 263.861 54.596,264.266 54.578,270.841 54.578 L 277.805 54.578 278.193 54.991 M283.320 54.872 C 283.084 55.108,283.179 112.889,283.416 112.889 C 283.534 112.889,287.252 109.270,291.678 104.846 C 296.103 100.422,299.793 96.780,299.877 96.752 C 299.962 96.724,302.344 99.033,305.171 101.883 C 307.998 104.734,311.651 108.416,313.289 110.066 L 316.267 113.067 328.601 113.067 C 338.885 113.067,340.968 113.026,341.138 112.821 C 341.303 112.623,338.583 109.819,327.125 98.376 C 319.306 90.567,312.884 84.082,312.854 83.964 C 312.824 83.846,317.389 79.154,322.998 73.536 C 328.872 67.653,333.146 63.239,333.077 63.127 C 332.992 62.990,329.332 62.933,320.566 62.933 L 308.175 62.933 304.273 66.838 C 302.128 68.985,300.328 70.699,300.275 70.645 C 300.221 70.592,300.138 67.015,300.089 62.696 L 300.000 54.844 291.720 54.798 C 287.166 54.773,283.386 54.806,283.320 54.872 M299.630 55.041 C 299.880 55.137,299.911 56.001,299.911 62.958 C 299.911 69.308,299.955 70.784,300.149 70.858 C 300.291 70.912,301.968 69.373,304.320 67.030 L 308.253 63.111 320.623 63.111 C 331.653 63.111,332.967 63.140,332.763 63.380 C 332.636 63.529,328.033 68.161,322.533 73.675 C 315.840 80.384,312.565 83.786,312.632 83.960 C 312.687 84.104,319.122 90.607,326.933 98.412 C 334.743 106.217,341.094 112.667,341.045 112.746 C 340.997 112.824,335.422 112.889,328.656 112.890 L 316.356 112.891 308.122 104.592 L 299.889 96.294 291.678 104.458 L 283.467 112.622 283.422 83.922 C 283.386 61.079,283.422 55.193,283.599 55.080 C 283.857 54.917,299.208 54.879,299.630 55.041 M72.915 60.721 C 70.956 60.973,68.884 61.435,68.444 61.719 C 68.250 61.844,68.298 61.861,68.622 61.779 C 70.662 61.266,71.482 61.127,73.432 60.960 C 75.965 60.743,81.077 60.968,83.467 61.402 C 84.249 61.544,85.209 61.705,85.600 61.760 L 86.311 61.860 85.600 61.610 C 85.209 61.473,84.703 61.355,84.476 61.347 C 84.249 61.339,83.409 61.218,82.610 61.076 C 79.198 60.472,75.815 60.348,72.915 60.721 M67.122 62.139 C 66.673 62.478,67.015 62.475,67.669 62.134 C 68.076 61.922,68.107 61.870,67.822 61.873 C 67.627 61.876,67.311 61.995,67.122 62.139 M87.111 62.143 C 88.125 62.462,88.391 62.459,87.822 62.133 C 87.578 61.994,87.138 61.882,86.844 61.885 C 86.372 61.890,86.402 61.919,87.111 62.143 M65.956 62.576 C 63.938 63.745,62.828 64.422,62.756 64.526 C 62.707 64.595,62.534 64.726,62.373 64.815 C 61.403 65.352,58.533 68.608,57.643 70.182 C 57.163 71.030,57.615 70.514,58.424 69.289 C 60.027 66.863,62.886 64.373,65.717 62.940 C 66.288 62.651,66.636 62.416,66.489 62.418 C 66.342 62.419,66.102 62.490,65.956 62.576 M88.865 62.674 C 89.624 63.003,89.760 63.003,89.323 62.672 C 89.133 62.529,88.818 62.412,88.622 62.413 C 88.376 62.414,88.451 62.494,88.865 62.674 M89.997 63.822 C 89.997 64.164,90.033 64.304,90.078 64.133 C 90.123 63.962,90.123 63.682,90.078 63.511 C 90.033 63.340,89.997 63.480,89.997 63.822 M89.727 66.222 C 89.598 67.214,89.435 68.217,88.890 71.378 C 88.671 72.646,88.288 73.338,87.932 73.108 C 87.389 72.759,83.425 71.463,82.948 71.479 C 82.744 71.486,82.978 71.606,83.467 71.746 C 84.910 72.158,86.095 72.552,86.694 72.818 C 87.002 72.955,87.366 73.067,87.502 73.067 C 87.639 73.067,87.848 73.164,87.966 73.282 C 88.369 73.684,88.896 72.895,89.012 71.719 C 89.068 71.140,89.174 70.587,89.247 70.489 C 89.320 70.391,89.433 69.751,89.498 69.067 C 89.564 68.382,89.698 67.614,89.797 67.359 C 89.896 67.105,89.952 66.505,89.922 66.026 L 89.867 65.156 89.727 66.222 M57.135 70.973 C 56.963 71.217,56.447 72.288,56.085 73.156 C 55.962 73.449,55.733 73.992,55.575 74.362 C 55.418 74.732,55.289 75.178,55.289 75.354 C 55.289 75.530,55.229 75.734,55.156 75.807 C 55.082 75.881,54.919 76.354,54.793 76.859 C 53.907 80.404,53.395 86.022,53.673 89.156 L 53.846 91.111 53.770 88.978 C 53.598 84.127,54.532 77.333,55.754 74.551 C 55.889 74.243,56.000 73.921,56.000 73.836 C 56.000 73.752,56.318 73.049,56.707 72.274 C 57.348 70.999,57.549 70.388,57.135 70.973 M75.962 70.887 C 76.528 70.923,77.408 70.922,77.918 70.886 C 78.427 70.851,77.964 70.822,76.889 70.822 C 75.813 70.822,75.396 70.852,75.962 70.887 M73.244 71.150 C 71.202 72.037,70.532 72.453,69.712 73.342 C 68.824 74.304,67.429 76.554,67.608 76.734 C 67.659 76.785,67.915 76.401,68.176 75.880 C 69.554 73.130,71.444 71.704,74.578 71.049 C 74.773 71.008,74.653 70.971,74.311 70.966 C 73.969 70.961,73.489 71.044,73.244 71.150 M79.822 71.118 C 81.780 71.440,82.448 71.489,81.956 71.276 C 81.711 71.170,80.911 71.055,80.178 71.020 C 78.869 70.958,78.862 70.960,79.822 71.118 M111.689 72.309 C 112.251 72.344,113.171 72.344,113.733 72.309 C 114.296 72.274,113.836 72.245,112.711 72.245 C 111.587 72.245,111.127 72.274,111.689 72.309 M155.517 72.309 C 156.034 72.345,156.834 72.345,157.295 72.308 C 157.756 72.272,157.333 72.242,156.356 72.243 C 155.378 72.243,155.000 72.273,155.517 72.309 M175.162 72.309 C 175.728 72.345,176.608 72.344,177.118 72.309 C 177.627 72.273,177.164 72.244,176.089 72.244 C 175.013 72.245,174.596 72.274,175.162 72.309 M250.718 72.309 C 251.283 72.345,252.163 72.344,252.673 72.309 C 253.183 72.273,252.720 72.244,251.644 72.244 C 250.569 72.245,250.152 72.274,250.718 72.309 M108.000 72.627 C 107.059 72.937,107.738 72.939,108.978 72.630 C 109.816 72.421,109.867 72.386,109.333 72.389 C 108.991 72.391,108.391 72.498,108.000 72.627 M116.533 72.626 C 117.691 72.948,118.349 72.945,117.511 72.622 C 117.169 72.490,116.609 72.382,116.267 72.381 C 115.685 72.380,115.702 72.396,116.533 72.626 M152.444 72.629 C 151.744 72.949,152.230 72.951,153.244 72.631 C 153.941 72.412,153.976 72.380,153.511 72.382 C 153.218 72.383,152.738 72.494,152.444 72.629 M159.467 72.639 C 161.814 73.420,162.894 74.162,164.029 75.776 C 165.032 77.201,164.909 77.199,166.517 75.827 C 167.965 74.591,168.061 74.528,170.044 73.534 C 170.729 73.190,171.154 72.905,170.988 72.899 C 170.823 72.894,170.644 72.960,170.590 73.047 C 170.536 73.134,170.273 73.260,170.005 73.327 C 169.406 73.478,167.397 74.799,165.996 75.965 C 164.944 76.841,164.475 76.846,164.450 75.981 C 164.443 75.723,162.905 74.136,162.222 73.683 C 161.230 73.023,159.611 72.351,159.045 72.364 C 158.831 72.369,159.014 72.488,159.467 72.639 M171.822 72.629 C 171.130 72.946,171.582 72.949,172.711 72.635 C 173.546 72.402,173.562 72.387,172.978 72.386 C 172.636 72.385,172.116 72.494,171.822 72.629 M179.111 72.540 C 179.404 72.622,179.973 72.771,180.374 72.873 C 182.719 73.465,185.389 75.599,186.354 77.652 C 186.564 78.098,186.766 78.368,186.804 78.254 C 187.186 77.108,182.798 73.180,180.694 72.785 C 180.359 72.722,180.041 72.600,179.988 72.513 C 179.934 72.426,179.595 72.364,179.234 72.374 L 178.578 72.392 179.111 72.540 M247.924 72.513 C 247.870 72.600,247.546 72.723,247.203 72.788 C 246.252 72.966,244.886 73.725,242.995 75.126 C 240.949 76.642,240.918 76.632,240.852 74.483 L 240.800 72.800 239.111 72.789 L 237.422 72.778 239.067 72.840 L 240.711 72.902 240.714 74.629 C 240.717 76.702,240.854 77.038,241.489 76.530 C 243.913 74.588,245.643 73.422,246.100 73.422 C 246.226 73.422,246.405 73.347,246.498 73.256 C 246.591 73.165,247.267 72.930,248.000 72.734 C 249.113 72.436,249.225 72.375,248.677 72.366 C 248.316 72.360,247.977 72.426,247.924 72.513 M254.667 72.562 C 256.114 72.899,256.507 72.925,255.733 72.631 C 255.342 72.482,254.782 72.369,254.489 72.379 C 254.004 72.395,254.020 72.411,254.667 72.562 M144.089 72.878 L 145.689 72.978 145.740 74.754 C 145.798 76.752,145.920 77.016,146.519 76.448 C 147.685 75.340,150.059 73.738,151.250 73.255 C 151.571 73.125,151.790 72.975,151.737 72.922 C 151.486 72.671,147.671 75.077,146.521 76.213 C 146.056 76.671,145.956 76.419,145.956 74.791 C 145.956 72.720,145.939 72.702,144.009 72.745 L 142.489 72.778 144.089 72.878 M200.533 72.881 L 203.111 72.978 203.200 87.289 C 203.297 102.950,203.227 101.969,204.333 103.160 C 204.840 103.706,206.216 104.362,206.815 104.343 C 207.027 104.337,206.700 104.170,206.089 103.972 C 205.478 103.775,204.978 103.541,204.978 103.451 C 204.978 103.362,204.877 103.289,204.754 103.289 C 204.500 103.289,204.156 102.806,203.694 101.803 C 203.399 101.164,203.378 100.158,203.378 87.127 C 203.378 76.484,203.327 73.087,203.164 72.924 C 203.015 72.775,202.203 72.722,200.453 72.748 L 197.956 72.785 200.533 72.881 M223.289 72.878 L 225.689 72.978 225.689 92.889 L 225.689 112.800 220.889 112.850 C 214.785 112.913,215.289 113.060,215.289 111.226 C 215.289 110.413,215.236 109.695,215.171 109.630 C 215.074 109.534,214.012 110.207,213.689 110.570 C 213.188 111.133,210.505 112.534,208.805 113.121 C 207.219 113.668,202.033 113.659,200.411 113.108 C 196.880 111.905,194.879 109.955,193.532 106.400 C 193.353 105.926,193.260 105.815,193.254 106.068 C 193.216 107.627,197.121 112.508,198.431 112.539 C 198.561 112.542,198.822 112.662,199.012 112.806 C 199.202 112.949,199.503 113.067,199.681 113.067 C 199.859 113.067,200.144 113.142,200.314 113.234 C 202.581 114.465,208.297 113.988,211.200 112.325 C 211.347 112.241,211.687 112.086,211.956 111.980 C 212.224 111.874,212.444 111.715,212.444 111.627 C 212.444 111.539,212.533 111.467,212.641 111.467 C 212.822 111.467,213.990 110.623,214.546 110.091 C 215.002 109.656,215.111 109.881,215.111 111.253 C 215.111 112.095,215.195 112.724,215.324 112.853 C 215.571 113.100,225.352 113.162,225.734 112.920 C 225.911 112.807,225.948 108.663,225.912 92.789 L 225.867 72.800 223.378 72.789 L 220.889 72.779 223.289 72.878 M106.400 73.067 C 106.340 73.164,106.150 73.244,105.978 73.244 C 104.990 73.244,101.218 75.653,99.599 77.319 C 98.896 78.043,97.244 80.243,97.244 80.456 C 97.244 80.503,97.044 80.857,96.800 81.244 C 96.556 81.632,96.357 82.010,96.359 82.085 C 96.361 82.161,96.612 81.822,96.916 81.333 C 98.788 78.331,100.210 76.724,102.133 75.440 C 103.668 74.414,104.497 73.994,106.578 73.184 C 107.078 72.989,107.173 72.904,106.899 72.898 C 106.685 72.893,106.460 72.969,106.400 73.067 M118.400 72.971 C 118.400 73.016,118.780 73.166,119.244 73.305 C 119.993 73.528,121.299 74.121,122.933 74.981 C 123.611 75.337,126.982 78.686,127.309 79.328 C 128.422 81.512,128.768 82.136,128.831 82.073 C 129.143 81.760,126.547 77.860,125.128 76.510 C 123.733 75.183,120.440 73.244,119.582 73.244 C 119.432 73.244,119.260 73.164,119.200 73.067 C 119.092 72.892,118.400 72.810,118.400 72.971 M136.889 73.067 C 136.742 73.161,136.367 73.240,136.055 73.242 C 135.743 73.243,135.447 73.310,135.397 73.391 C 135.348 73.471,135.833 73.466,136.475 73.380 C 137.118 73.294,138.254 73.159,138.999 73.080 L 140.356 72.936 138.756 72.915 C 137.876 72.904,137.036 72.972,136.889 73.067 M193.778 73.067 C 193.631 73.161,193.331 73.240,193.111 73.242 C 192.891 73.243,192.711 73.316,192.711 73.403 C 192.711 73.497,193.005 73.496,193.421 73.403 C 193.812 73.315,194.672 73.173,195.333 73.088 L 196.533 72.934 195.289 72.914 C 194.604 72.903,193.924 72.972,193.778 73.067 M216.356 73.067 C 216.209 73.161,215.917 73.240,215.708 73.242 C 215.105 73.246,215.111 73.078,215.111 88.465 C 215.111 102.268,215.093 103.128,214.800 103.222 C 214.249 103.398,213.687 103.702,213.766 103.781 C 213.809 103.824,214.169 103.715,214.566 103.539 L 215.289 103.220 215.289 88.421 C 215.289 78.542,215.349 73.584,215.470 73.509 C 215.570 73.447,216.470 73.291,217.470 73.163 L 219.289 72.929 217.956 72.912 C 217.222 72.902,216.502 72.972,216.356 73.067 M231.733 73.108 C 231.342 73.203,230.842 73.352,230.622 73.437 L 230.222 73.592 230.222 93.145 C 230.222 112.295,230.229 112.702,230.566 112.883 C 231.096 113.166,240.649 113.131,240.834 112.844 C 240.913 112.722,240.978 106.106,240.978 98.141 L 240.978 83.660 241.689 83.193 C 244.293 81.482,249.783 81.055,251.607 82.421 C 252.936 83.417,252.978 83.934,252.978 99.388 C 252.978 111.500,253.006 112.862,253.259 112.959 C 253.626 113.100,262.996 113.100,263.363 112.959 C 263.662 112.844,263.791 84.232,263.501 82.595 C 263.433 82.213,263.401 88.830,263.430 97.300 L 263.483 112.700 263.075 112.800 C 262.850 112.855,260.547 112.877,257.956 112.850 L 253.244 112.800 253.149 98.667 C 253.045 83.278,253.073 83.662,252.012 82.602 C 250.408 80.997,245.899 80.982,242.361 82.570 C 240.540 83.387,240.719 81.732,240.668 98.235 L 240.622 112.800 235.644 112.800 L 230.667 112.800 230.667 93.158 L 230.667 73.516 231.644 73.372 C 232.182 73.292,233.222 73.162,233.956 73.082 L 235.289 72.936 233.867 72.935 C 233.084 72.934,232.124 73.012,231.733 73.108 M256.533 72.974 C 256.533 73.021,257.073 73.312,257.733 73.621 C 259.828 74.600,261.694 76.760,262.629 79.289 C 262.695 79.468,262.732 79.427,262.742 79.166 C 262.749 78.952,262.682 78.731,262.591 78.675 C 262.501 78.619,262.375 78.335,262.311 78.042 C 262.246 77.750,262.140 77.511,262.074 77.511 C 262.008 77.511,261.841 77.258,261.704 76.948 C 261.375 76.204,259.442 74.263,258.711 73.944 C 258.393 73.805,258.133 73.637,258.133 73.571 C 258.133 73.505,257.894 73.398,257.602 73.334 C 257.310 73.270,257.025 73.143,256.969 73.053 C 256.864 72.883,256.533 72.823,256.533 72.974 M268.171 73.111 C 268.124 73.233,268.107 82.253,268.132 93.156 L 268.178 112.978 273.067 113.028 C 275.756 113.055,278.136 113.034,278.356 112.980 L 278.756 112.882 278.756 93.167 C 278.756 82.323,278.707 73.325,278.648 73.170 C 278.504 72.795,268.313 72.737,268.171 73.111 M278.470 73.348 C 278.753 74.087,278.584 112.671,278.297 112.781 C 278.142 112.840,275.822 112.889,273.141 112.889 L 268.267 112.889 268.267 92.978 L 268.267 73.067 273.314 73.067 C 277.753 73.067,278.375 73.101,278.470 73.348 M67.218 77.618 C 67.092 77.965,67.029 78.288,67.077 78.336 C 67.125 78.384,67.261 78.133,67.378 77.778 C 67.656 76.936,67.515 76.795,67.218 77.618 M66.691 79.439 C 66.559 79.955,66.486 80.412,66.530 80.456 C 66.663 80.589,67.064 79.193,66.995 78.836 C 66.959 78.647,66.827 78.907,66.691 79.439 M186.844 78.775 C 186.844 78.921,186.917 79.116,187.005 79.209 C 187.093 79.302,187.204 79.538,187.251 79.733 C 187.321 80.023,187.339 80.007,187.352 79.644 C 187.360 79.400,187.249 79.045,187.105 78.855 C 186.910 78.596,186.844 78.576,186.844 78.775 M262.851 80.000 C 262.915 80.244,263.030 80.764,263.106 81.156 L 263.244 81.867 263.260 81.156 C 263.269 80.764,263.154 80.244,263.005 80.000 L 262.733 79.556 262.851 80.000 M187.471 80.711 C 187.827 82.603,187.893 85.288,187.902 98.352 L 187.911 112.704 187.511 112.802 C 187.291 112.856,184.951 112.877,182.311 112.850 L 177.511 112.800 177.421 98.489 L 177.330 84.178 177.287 98.514 C 177.249 111.449,177.272 112.861,177.526 112.959 C 178.093 113.176,187.650 113.079,187.876 112.853 C 188.399 112.330,188.098 81.262,187.562 80.416 C 187.389 80.144,187.374 80.194,187.471 80.711 M112.267 81.014 C 109.903 81.410,108.531 81.994,107.712 82.952 C 106.991 83.795,105.850 86.350,105.997 86.791 C 106.032 86.896,106.167 86.631,106.298 86.202 C 107.293 82.939,109.643 81.092,112.622 81.230 C 114.881 81.335,116.645 82.227,117.554 83.726 C 117.765 84.072,117.981 84.396,118.036 84.444 C 118.199 84.591,118.712 86.395,119.010 87.872 C 119.621 90.898,119.302 98.086,118.470 100.050 C 118.334 100.372,118.222 100.792,118.222 100.984 C 118.222 101.176,118.148 101.333,118.056 101.333 C 117.965 101.333,117.834 101.513,117.765 101.733 C 117.609 102.227,116.180 103.654,115.495 104.000 C 115.217 104.141,115.079 104.286,115.189 104.322 C 115.597 104.458,117.404 102.804,118.047 101.705 C 118.380 101.137,118.817 99.812,119.136 98.400 C 119.472 96.915,119.472 88.862,119.136 87.378 C 118.251 83.469,116.881 81.793,114.133 81.258 C 113.498 81.134,112.898 81.016,112.800 80.994 C 112.702 80.972,112.462 80.981,112.267 81.014 M66.161 82.756 C 66.029 83.733,65.955 84.933,65.995 85.422 C 66.058 86.170,66.074 86.105,66.101 85.011 C 66.119 84.295,66.217 83.553,66.320 83.361 C 66.422 83.170,66.482 82.555,66.453 81.995 C 66.402 81.014,66.391 81.041,66.161 82.756 M149.333 81.744 C 148.796 81.898,147.796 82.308,147.111 82.656 L 145.867 83.289 145.821 97.997 L 145.776 112.705 145.377 112.804 C 145.157 112.858,142.805 112.880,140.150 112.851 C 137.495 112.823,135.360 112.860,135.405 112.933 C 135.552 113.171,145.502 113.094,145.742 112.853 C 145.905 112.691,145.956 109.155,145.956 98.026 L 145.956 83.411 147.244 82.789 C 151.331 80.816,154.901 81.218,155.936 83.769 C 156.107 84.189,156.251 84.390,156.257 84.215 C 156.326 81.998,152.818 80.745,149.333 81.744 M170.133 81.725 C 168.924 82.114,167.554 82.818,167.133 83.265 C 166.758 83.665,166.758 83.681,166.712 98.233 L 166.667 112.800 161.600 112.800 L 156.533 112.800 156.443 99.022 L 156.352 85.244 156.309 99.063 L 156.267 112.882 156.667 112.980 C 156.887 113.034,159.267 113.055,161.956 113.028 L 166.844 112.978 166.890 98.288 C 166.939 82.297,166.862 83.494,167.886 82.906 C 171.337 80.927,175.831 81.191,176.883 83.435 C 177.075 83.843,177.234 84.074,177.238 83.947 C 177.293 81.989,173.244 80.723,170.133 81.725 M95.921 83.032 C 95.227 84.729,94.828 86.199,94.404 88.622 C 94.193 89.828,94.193 96.344,94.404 97.778 C 94.840 100.734,95.155 101.902,96.113 104.116 C 96.246 104.424,96.356 104.764,96.356 104.871 C 96.356 104.979,96.427 105.067,96.514 105.067 C 96.601 105.067,96.723 105.267,96.784 105.511 C 96.845 105.756,96.973 105.956,97.067 105.956 C 97.161 105.956,97.069 105.656,96.862 105.289 C 94.338 100.812,93.570 91.617,95.227 85.689 C 95.601 84.351,96.028 83.155,96.225 82.895 C 96.315 82.776,96.356 82.581,96.316 82.461 C 96.277 82.341,96.098 82.598,95.921 83.032 M128.890 82.424 C 128.888 82.753,129.408 83.849,129.415 83.531 C 129.419 83.371,129.303 83.011,129.157 82.731 C 129.011 82.451,128.891 82.313,128.890 82.424 M129.513 84.267 C 129.576 84.511,129.693 84.951,129.773 85.244 L 129.919 85.778 129.931 85.244 C 129.938 84.951,129.821 84.511,129.671 84.267 L 129.400 83.822 129.513 84.267 M130.037 86.311 C 130.540 89.303,130.601 97.136,130.132 98.436 C 130.019 98.750,129.957 99.150,129.995 99.325 C 130.090 99.772,130.420 98.200,130.677 96.078 C 130.994 93.459,130.666 87.412,130.143 86.222 C 129.953 85.789,129.950 85.791,130.037 86.311 M105.644 88.376 C 105.326 90.060,105.360 96.680,105.692 97.956 L 105.947 98.933 105.848 98.044 C 105.620 95.991,105.575 89.853,105.782 88.977 C 105.897 88.487,105.963 87.887,105.929 87.643 C 105.889 87.362,105.784 87.631,105.644 88.376 M66.071 90.133 C 66.113 91.160,66.218 92.320,66.306 92.711 C 66.503 93.595,66.412 91.698,66.157 89.600 C 65.999 88.309,65.997 88.325,66.071 90.133 M53.900 92.267 C 53.890 92.902,53.997 93.902,54.137 94.489 L 54.392 95.556 54.283 94.578 C 54.223 94.040,54.116 93.040,54.046 92.356 L 53.919 91.111 53.900 92.267 M66.565 94.311 C 66.608 94.604,66.720 95.124,66.814 95.467 L 66.986 96.089 66.990 95.556 C 66.993 95.262,66.881 94.742,66.742 94.400 C 66.495 93.795,66.490 93.792,66.565 94.311 M54.417 95.987 C 54.407 96.225,54.477 96.665,54.572 96.965 C 54.667 97.265,54.874 97.991,55.033 98.578 C 55.377 99.852,55.631 100.518,55.732 100.416 C 55.773 100.375,55.682 99.985,55.531 99.549 C 55.379 99.112,55.070 98.036,54.844 97.156 C 54.618 96.276,54.426 95.750,54.417 95.987 M67.022 96.423 C 67.022 96.570,67.102 96.740,67.200 96.800 C 67.298 96.860,67.378 97.074,67.378 97.274 C 67.378 98.552,70.216 101.979,71.822 102.640 C 72.262 102.822,72.761 103.042,72.931 103.129 C 73.101 103.217,73.381 103.286,73.553 103.283 C 73.962 103.274,73.119 102.771,72.681 102.762 C 71.812 102.743,69.126 100.572,68.606 99.467 C 68.514 99.271,68.250 98.778,68.020 98.370 C 67.789 97.963,67.547 97.346,67.482 96.999 C 67.362 96.359,67.022 95.934,67.022 96.423 M105.956 99.355 C 105.956 100.176,107.093 102.401,107.930 103.218 C 108.840 104.107,108.818 103.915,107.896 102.918 C 107.143 102.105,106.815 101.484,106.377 100.044 C 106.141 99.271,105.956 98.968,105.956 99.355 M129.745 100.089 C 129.681 100.333,129.573 100.733,129.505 100.978 L 129.382 101.422 129.680 101.020 C 129.844 100.799,129.952 100.399,129.920 100.131 L 129.861 99.644 129.745 100.089 M88.774 100.265 C 88.564 100.350,88.341 100.502,88.279 100.602 C 88.217 100.703,88.379 100.675,88.638 100.540 C 89.239 100.228,89.576 100.359,89.706 100.953 C 89.880 101.748,89.927 101.799,89.942 101.213 C 89.949 100.902,89.830 100.522,89.676 100.368 C 89.363 100.055,89.311 100.049,88.774 100.265 M55.832 100.889 C 55.833 101.084,55.951 101.400,56.095 101.590 C 56.238 101.779,56.356 102.038,56.356 102.164 C 56.356 102.290,56.676 102.917,57.067 103.556 C 57.458 104.195,57.778 104.764,57.778 104.822 C 57.778 104.914,58.403 105.750,59.200 106.725 C 60.940 108.851,65.278 112.000,66.468 112.000 C 66.625 112.000,66.056 111.653,65.205 111.230 C 61.627 109.448,58.223 105.943,56.718 102.489 C 55.949 100.722,55.830 100.508,55.832 100.889 M87.369 100.959 C 87.276 101.047,86.760 101.294,86.222 101.508 C 85.684 101.722,85.106 101.970,84.936 102.060 C 84.766 102.149,84.446 102.225,84.225 102.229 C 84.003 102.232,83.622 102.349,83.378 102.489 C 83.133 102.629,82.693 102.752,82.400 102.763 C 82.107 102.774,81.587 102.890,81.244 103.022 C 80.266 103.399,81.155 103.330,82.578 102.919 C 83.262 102.721,84.062 102.492,84.356 102.409 C 85.129 102.190,86.058 101.839,86.574 101.570 C 86.820 101.441,87.102 101.332,87.200 101.329 C 87.516 101.317,88.105 100.800,87.803 100.800 C 87.657 100.800,87.462 100.872,87.369 100.959 M129.081 102.165 C 125.568 111.967,113.528 116.610,103.798 111.916 C 102.712 111.392,102.637 111.376,102.933 111.733 C 103.055 111.880,103.258 112.000,103.385 112.000 C 103.512 112.000,103.882 112.134,104.208 112.297 C 104.534 112.460,104.937 112.659,105.105 112.739 C 105.577 112.964,106.817 113.260,108.089 113.451 C 108.724 113.546,109.528 113.706,109.874 113.806 C 111.048 114.145,116.906 113.692,117.413 113.223 C 117.506 113.137,117.734 113.067,117.920 113.067 C 118.105 113.067,118.549 112.941,118.906 112.787 C 120.296 112.188,120.810 111.955,121.067 111.809 C 121.213 111.726,121.690 111.475,122.125 111.251 C 123.788 110.397,127.224 106.645,128.195 104.622 C 128.430 104.133,128.682 103.707,128.756 103.674 C 128.829 103.641,128.889 103.494,128.889 103.345 C 128.889 103.197,129.017 102.807,129.173 102.478 C 129.329 102.149,129.427 101.791,129.391 101.683 C 129.355 101.575,129.215 101.792,129.081 102.165 M90.060 102.489 C 90.119 102.880,90.230 103.520,90.306 103.911 L 90.444 104.622 90.453 103.822 C 90.458 103.382,90.347 102.742,90.207 102.400 L 89.951 101.778 90.060 102.489 M192.738 103.289 C 192.726 103.729,192.837 104.449,192.984 104.889 L 193.251 105.689 193.134 104.889 C 193.069 104.449,192.958 103.729,192.887 103.289 L 192.759 102.489 192.738 103.289 M74.756 103.477 C 75.642 103.660,78.372 103.659,79.556 103.475 C 80.161 103.380,79.425 103.335,77.244 103.333 C 75.110 103.331,74.281 103.379,74.756 103.477 M109.056 104.095 C 109.246 104.238,109.481 104.356,109.579 104.356 C 109.677 104.356,109.602 104.238,109.412 104.095 C 109.222 103.951,108.987 103.834,108.889 103.834 C 108.791 103.834,108.866 103.951,109.056 104.095 M212.572 103.932 C 212.512 103.992,212.198 104.104,211.876 104.180 L 211.289 104.319 211.822 104.324 C 212.543 104.330,213.824 103.856,213.141 103.836 C 212.888 103.828,212.632 103.871,212.572 103.932 M110.133 104.566 C 110.370 104.722,111.110 104.800,112.356 104.800 C 113.601 104.800,114.341 104.722,114.578 104.566 C 114.893 104.358,114.864 104.347,114.311 104.471 C 113.969 104.547,113.089 104.609,112.356 104.609 C 111.622 104.609,110.742 104.547,110.400 104.471 C 109.848 104.347,109.818 104.358,110.133 104.566 M208.311 104.487 C 208.824 104.523,209.664 104.523,210.178 104.487 C 210.691 104.451,210.271 104.421,209.244 104.421 C 208.218 104.421,207.798 104.451,208.311 104.487 M90.595 105.600 C 90.666 106.040,90.786 106.880,90.861 107.467 C 90.978 108.386,90.988 108.318,90.930 106.977 C 90.892 106.122,90.773 105.282,90.664 105.111 C 90.511 104.870,90.496 104.981,90.595 105.600 M97.244 106.255 C 97.244 106.369,97.364 106.583,97.511 106.730 C 97.658 106.877,97.778 107.076,97.778 107.174 C 97.778 107.503,101.295 110.933,101.632 110.933 C 101.697 110.933,101.897 111.066,102.076 111.229 C 102.255 111.391,102.448 111.478,102.505 111.421 C 102.561 111.365,102.181 111.044,101.659 110.708 C 100.577 110.012,98.802 108.241,97.875 106.934 C 97.528 106.445,97.244 106.140,97.244 106.255 M91.006 109.410 C 90.927 110.363,90.798 110.464,88.178 111.631 C 87.738 111.827,87.525 111.990,87.706 111.994 C 87.886 111.997,88.246 111.888,88.506 111.750 C 88.765 111.613,89.440 111.279,90.004 111.008 C 91.301 110.386,91.360 110.303,91.206 109.333 L 91.078 108.533 91.006 109.410 M66.844 112.175 C 66.844 112.361,67.305 112.533,67.801 112.533 C 68.018 112.533,68.278 112.616,68.379 112.717 C 68.565 112.903,69.114 113.024,72.178 113.558 C 74.377 113.942,78.730 113.936,81.244 113.546 C 84.263 113.077,85.234 112.881,85.413 112.702 C 85.506 112.609,85.831 112.533,86.135 112.533 C 86.439 112.533,86.843 112.409,87.033 112.257 C 87.372 111.986,87.372 111.983,87.017 112.079 C 84.211 112.838,84.465 112.777,82.400 113.186 C 81.136 113.437,79.922 113.503,76.622 113.500 C 72.140 113.497,70.965 113.346,67.956 112.387 C 67.344 112.192,66.844 112.097,66.844 112.175 " stroke="none" fill="#9294ac" fill-rule="evenodd"></path><path id="path4" d="M263.577 54.910 C 263.148 55.383,263.212 67.998,263.644 68.271 C 263.798 68.367,266.301 68.440,269.524 68.442 L 275.137 68.444 276.452 69.696 C 278.625 71.764,278.481 72.221,278.535 63.125 L 278.582 55.405 278.193 54.991 L 277.805 54.578 270.841 54.578 C 264.266 54.578,263.861 54.596,263.577 54.910 M278.009 55.147 C 278.291 55.429,278.320 70.756,278.038 70.756 C 277.937 70.756,277.283 70.196,276.585 69.511 L 275.316 68.267 269.588 68.267 C 264.529 68.267,263.848 68.234,263.752 67.985 C 263.605 67.601,263.615 55.200,263.763 55.052 C 263.992 54.823,277.777 54.915,278.009 55.147 M287.701 55.067 C 289.932 55.095,293.532 55.095,295.701 55.066 C 297.870 55.038,296.044 55.015,291.644 55.015 C 287.244 55.015,285.470 55.038,287.701 55.067 M75.067 60.931 C 75.629 60.967,76.549 60.967,77.111 60.931 C 77.673 60.896,77.213 60.867,76.089 60.867 C 74.964 60.867,74.504 60.896,75.067 60.931 M70.933 61.257 C 70.024 61.535,70.633 61.499,72.178 61.185 C 72.933 61.031,72.943 61.022,72.356 61.017 C 72.013 61.015,71.373 61.123,70.933 61.257 M80.444 61.156 C 82.012 61.427,83.615 61.538,82.756 61.317 C 82.364 61.217,81.484 61.105,80.800 61.069 C 79.635 61.007,79.612 61.012,80.444 61.156 M68.533 61.801 C 68.142 61.938,67.662 62.119,67.467 62.203 C 67.271 62.288,66.751 62.505,66.311 62.686 C 65.403 63.060,63.507 64.147,63.366 64.375 C 63.269 64.531,64.374 63.993,64.533 63.807 C 64.753 63.549,67.755 62.250,69.022 61.864 C 69.389 61.753,69.689 61.628,69.689 61.586 C 69.689 61.463,69.288 61.537,68.533 61.801 M84.711 61.767 C 85.102 61.905,85.662 62.014,85.956 62.010 C 86.544 62.003,86.101 61.874,84.622 61.623 C 84.007 61.519,84.008 61.520,84.711 61.767 M86.844 62.220 C 87.040 62.303,87.777 62.551,88.481 62.771 L 89.762 63.171 89.830 64.252 L 89.897 65.333 89.882 64.180 L 89.867 63.026 88.444 62.545 C 87.108 62.093,86.033 61.874,86.844 62.220 M304.320 67.030 C 301.968 69.373,300.291 70.912,300.149 70.858 C 300.018 70.808,299.911 70.844,299.911 70.939 C 299.911 71.516,300.909 70.691,304.326 67.289 L 308.164 63.467 320.343 63.467 L 332.521 63.467 331.239 64.722 C 330.533 65.412,329.956 66.052,329.956 66.144 C 329.956 66.236,329.887 66.311,329.803 66.311 C 329.608 66.311,322.489 73.437,322.489 73.632 C 322.489 73.712,322.415 73.778,322.324 73.778 C 322.121 73.778,320.000 75.914,320.000 76.119 C 320.000 76.200,319.880 76.267,319.733 76.267 C 319.587 76.267,319.467 76.387,319.467 76.533 C 319.467 76.680,319.399 76.800,319.316 76.800 C 319.233 76.800,318.013 77.954,316.605 79.364 C 313.071 82.903,312.442 83.556,312.569 83.556 C 312.667 83.556,332.202 64.038,332.763 63.380 C 332.967 63.140,331.648 63.111,320.623 63.111 L 308.253 63.111 304.320 67.030 M61.857 65.480 C 59.942 67.062,56.548 71.467,57.243 71.467 C 57.328 71.467,57.454 71.287,57.523 71.067 C 57.592 70.847,57.701 70.627,57.767 70.578 C 57.832 70.529,58.077 70.169,58.311 69.778 C 58.545 69.387,58.782 69.027,58.837 68.978 C 58.893 68.929,59.239 68.489,59.606 68.000 C 60.214 67.192,60.639 66.775,62.578 65.082 C 63.621 64.171,63.077 64.472,61.857 65.480 M89.442 66.716 C 89.275 67.677,89.181 69.583,89.340 68.800 C 89.571 67.661,89.812 65.753,89.735 65.675 C 89.683 65.623,89.551 66.092,89.442 66.716 M89.010 69.403 C 88.955 69.547,88.868 70.170,88.817 70.788 C 88.722 71.933,88.740 71.901,89.097 70.266 C 89.289 69.388,89.232 68.824,89.010 69.403 M74.400 70.736 C 74.009 70.796,75.289 70.845,77.244 70.845 C 79.351 70.846,80.329 70.800,79.644 70.733 C 78.200 70.591,75.342 70.593,74.400 70.736 M81.422 71.119 C 81.764 71.214,82.444 71.365,82.933 71.454 C 83.422 71.543,83.982 71.674,84.178 71.745 C 84.430 71.837,84.482 71.818,84.356 71.680 C 84.186 71.495,82.766 71.174,81.422 71.017 L 80.800 70.945 81.422 71.119 M71.901 71.550 C 71.452 71.889,71.646 71.893,72.291 71.557 C 72.571 71.411,72.675 71.291,72.523 71.290 C 72.370 71.289,72.090 71.406,71.901 71.550 M56.831 71.916 C 56.765 72.109,56.663 72.387,56.604 72.533 C 56.545 72.680,56.631 72.618,56.795 72.395 C 56.959 72.173,57.061 71.895,57.022 71.778 C 56.982 71.658,56.899 71.719,56.831 71.916 M85.309 72.096 C 85.638 72.239,85.998 72.353,86.109 72.349 C 86.461 72.338,85.439 71.835,85.067 71.835 C 84.821 71.836,84.896 71.917,85.309 72.096 M88.454 72.400 C 88.378 72.669,88.201 72.889,88.059 72.889 C 87.917 72.889,87.855 72.977,87.922 73.085 C 88.106 73.381,88.761 72.643,88.668 72.244 C 88.605 71.975,88.564 72.005,88.454 72.400 M69.956 72.854 C 68.945 73.779,67.378 76.176,67.378 76.798 C 67.378 76.917,67.668 76.450,68.022 75.761 C 68.667 74.508,68.840 74.271,70.020 73.022 C 70.756 72.244,70.721 72.153,69.956 72.854 M86.756 72.622 C 87.000 72.762,87.320 72.879,87.467 72.881 C 87.613 72.884,87.504 72.767,87.224 72.621 C 86.575 72.283,86.163 72.284,86.756 72.622 M111.342 72.488 C 112.202 72.521,113.562 72.521,114.364 72.488 C 115.166 72.455,114.462 72.428,112.800 72.428 C 111.138 72.429,110.482 72.455,111.342 72.488 M156.356 72.535 C 157.724 72.596,159.164 72.744,159.556 72.864 C 160.678 73.208,161.659 73.657,162.034 73.998 C 162.223 74.170,162.439 74.311,162.513 74.311 C 162.630 74.311,163.291 75.102,164.634 76.850 L 165.014 77.345 165.767 76.651 C 166.181 76.270,166.733 75.818,166.993 75.647 C 167.254 75.477,167.467 75.256,167.467 75.158 C 167.467 75.059,166.947 75.435,166.311 75.993 C 164.951 77.187,165.027 77.195,164.029 75.776 C 162.284 73.295,160.059 72.333,156.199 72.390 L 153.867 72.425 156.356 72.535 M174.808 72.488 C 175.570 72.521,176.770 72.521,177.475 72.487 C 178.179 72.454,177.556 72.426,176.089 72.427 C 174.622 72.427,174.046 72.454,174.808 72.488 M250.348 72.487 C 251.003 72.521,252.123 72.522,252.837 72.488 C 253.550 72.454,253.013 72.426,251.644 72.426 C 250.276 72.425,249.692 72.453,250.348 72.487 M108.039 72.804 C 107.039 73.022,106.528 73.190,105.244 73.722 C 104.255 74.132,103.817 74.365,103.894 74.442 C 103.933 74.481,104.113 74.428,104.294 74.324 C 104.970 73.932,107.367 73.081,107.822 73.070 C 108.018 73.065,108.538 72.948,108.978 72.809 C 109.954 72.502,109.438 72.499,108.039 72.804 M116.089 72.691 C 116.236 72.795,116.817 72.932,117.382 72.996 C 117.946 73.061,118.451 73.183,118.503 73.268 C 118.556 73.353,118.774 73.417,118.988 73.411 C 119.526 73.395,118.794 73.078,117.778 72.885 C 117.387 72.811,116.787 72.695,116.444 72.627 C 115.984 72.536,115.891 72.552,116.089 72.691 M152.506 72.804 C 151.203 73.161,148.151 74.845,147.811 75.395 C 147.618 75.709,147.939 75.546,148.852 74.870 C 150.231 73.848,151.548 73.200,152.711 72.971 C 153.417 72.832,154.067 72.532,153.600 72.561 C 153.453 72.570,152.961 72.679,152.506 72.804 M172.000 72.798 C 170.960 73.062,169.334 73.749,169.457 73.872 C 169.533 73.948,170.251 73.666,171.029 73.255 C 171.179 73.176,171.659 73.052,172.096 72.980 C 172.910 72.845,173.706 72.529,173.156 72.558 C 173.009 72.566,172.489 72.674,172.000 72.798 M178.881 72.619 C 178.950 72.693,179.430 72.856,179.947 72.980 C 180.465 73.104,181.049 73.266,181.244 73.340 C 181.496 73.435,181.548 73.418,181.422 73.281 C 181.264 73.109,180.630 72.910,179.200 72.586 C 178.956 72.530,178.812 72.545,178.881 72.619 M247.733 72.805 C 247.342 72.934,247.182 73.039,247.378 73.039 C 247.573 73.039,248.053 72.934,248.444 72.805 C 248.836 72.676,248.996 72.571,248.800 72.571 C 248.604 72.571,248.124 72.676,247.733 72.805 M254.933 72.796 C 255.373 72.942,255.861 73.062,256.018 73.064 C 256.175 73.065,256.685 73.270,257.152 73.518 C 257.619 73.766,258.038 73.932,258.084 73.887 C 258.193 73.777,256.413 72.961,255.733 72.809 C 254.534 72.541,254.147 72.534,254.933 72.796 M56.222 73.240 C 55.898 73.758,55.950 74.106,56.280 73.635 C 56.434 73.415,56.534 73.157,56.502 73.060 C 56.470 72.964,56.344 73.045,56.222 73.240 M142.800 73.019 L 145.422 73.076 145.422 74.571 C 145.422 76.151,145.621 76.983,145.996 76.970 C 146.260 76.962,147.653 75.771,147.535 75.654 C 147.492 75.610,147.153 75.861,146.782 76.210 C 145.905 77.038,145.802 76.894,145.740 74.754 L 145.689 72.978 142.933 72.970 L 140.178 72.963 142.800 73.019 M199.644 73.059 L 202.933 73.156 203.024 86.844 L 203.116 100.533 203.113 86.756 L 203.111 72.978 199.733 72.970 L 196.356 72.962 199.644 73.059 M222.400 73.020 L 225.600 73.075 225.600 92.890 L 225.600 112.706 220.578 112.757 L 215.556 112.809 220.622 112.804 L 225.689 112.800 225.689 92.889 L 225.689 72.978 222.444 72.972 L 219.200 72.965 222.400 73.020 M233.867 73.086 C 232.071 73.275,231.534 73.433,233.067 73.322 C 233.702 73.276,235.639 73.189,237.371 73.130 L 240.519 73.023 240.578 74.689 L 240.637 76.356 240.674 74.622 L 240.711 72.889 238.000 72.913 C 236.509 72.926,234.649 73.004,233.867 73.086 M137.600 73.244 L 136.800 73.369 137.511 73.378 C 137.902 73.383,138.662 73.326,139.200 73.252 L 140.178 73.117 139.289 73.118 C 138.800 73.119,138.040 73.176,137.600 73.244 M194.311 73.244 L 193.689 73.375 194.311 73.389 C 194.653 73.396,195.253 73.336,195.644 73.255 L 196.356 73.108 195.644 73.111 C 195.253 73.112,194.653 73.172,194.311 73.244 M216.889 73.244 L 216.089 73.369 216.800 73.382 C 217.191 73.390,217.871 73.332,218.311 73.254 L 219.111 73.111 218.400 73.116 C 218.009 73.118,217.329 73.176,216.889 73.244 M246.489 73.244 C 246.428 73.342,246.269 73.422,246.136 73.422 C 245.855 73.422,243.778 74.628,243.621 74.882 C 243.564 74.975,243.826 74.856,244.204 74.617 C 244.583 74.378,245.351 73.973,245.913 73.716 C 246.874 73.276,247.150 73.067,246.766 73.067 C 246.674 73.067,246.549 73.147,246.489 73.244 M268.267 73.200 C 268.266 73.273,270.435 73.311,273.086 73.283 C 276.533 73.247,277.976 73.292,278.153 73.438 C 278.361 73.611,278.407 76.758,278.444 93.222 L 278.487 112.800 278.537 93.333 C 278.564 82.627,278.543 73.687,278.490 73.467 L 278.393 73.067 273.330 73.067 C 270.545 73.067,268.267 73.127,268.267 73.200 M120.000 73.719 C 120.342 73.879,120.855 74.117,121.140 74.250 C 121.425 74.382,121.687 74.461,121.724 74.424 C 121.814 74.334,119.867 73.421,119.595 73.426 C 119.476 73.428,119.658 73.560,120.000 73.719 M135.371 73.644 C 135.324 73.767,135.307 82.627,135.332 93.333 L 135.378 112.800 140.444 112.804 L 145.511 112.809 140.489 112.757 L 135.467 112.706 135.467 93.164 L 135.467 73.621 136.133 73.552 L 136.800 73.482 136.128 73.452 C 135.729 73.434,135.421 73.513,135.371 73.644 M192.793 73.644 C 192.746 73.767,192.729 80.347,192.755 88.267 L 192.802 102.667 192.846 88.146 L 192.889 73.625 193.289 73.548 L 193.689 73.471 193.283 73.446 C 193.060 73.433,192.840 73.522,192.793 73.644 M215.407 73.541 C 215.342 73.606,215.289 80.318,215.289 88.457 L 215.289 103.254 214.711 103.482 C 214.393 103.607,213.973 103.767,213.778 103.837 C 213.468 103.948,213.463 103.967,213.740 103.982 C 213.915 103.992,214.362 103.845,214.733 103.656 L 215.408 103.312 215.524 88.512 C 215.615 76.880,215.688 73.682,215.864 73.570 C 216.032 73.464,216.017 73.427,215.807 73.425 C 215.653 73.423,215.473 73.476,215.407 73.541 M230.660 73.644 C 230.613 73.767,230.596 82.627,230.621 93.333 L 230.667 112.800 235.644 112.804 L 240.622 112.809 235.689 112.757 L 230.756 112.705 230.756 93.165 L 230.756 73.624 231.244 73.550 L 231.733 73.475 231.239 73.449 C 230.967 73.434,230.706 73.522,230.660 73.644 M258.666 74.267 C 260.255 75.425,261.620 77.173,262.222 78.825 C 262.326 79.107,262.453 79.295,262.506 79.242 C 262.985 78.763,259.305 73.956,258.458 73.956 C 258.338 73.956,258.431 74.096,258.666 74.267 M55.689 74.619 C 55.567 74.880,55.470 75.217,55.474 75.369 C 55.477 75.520,55.599 75.370,55.745 75.036 C 56.059 74.310,56.009 73.936,55.689 74.619 M102.331 75.308 C 100.553 76.501,98.839 78.262,97.721 80.044 C 97.121 81.000,97.581 80.512,98.657 79.049 C 99.831 77.455,101.017 76.337,102.631 75.304 C 103.492 74.753,103.806 74.489,103.598 74.489 C 103.573 74.489,103.002 74.858,102.331 75.308 M122.133 74.756 C 122.255 74.902,122.435 75.022,122.532 75.022 C 122.632 75.022,122.612 74.904,122.489 74.756 C 122.367 74.609,122.188 74.489,122.090 74.489 C 121.991 74.489,122.010 74.607,122.133 74.756 M167.822 74.756 C 167.699 74.904,167.680 75.022,167.779 75.022 C 167.876 75.022,168.056 74.902,168.178 74.756 C 168.301 74.607,168.320 74.489,168.221 74.489 C 168.124 74.489,167.944 74.609,167.822 74.756 M183.644 74.538 C 183.644 74.579,184.073 75.045,184.597 75.573 C 186.254 77.244,187.331 79.836,187.617 82.844 C 187.672 83.424,187.678 83.415,187.705 82.722 C 187.733 81.995,187.339 79.908,187.040 79.200 C 186.386 77.652,185.850 76.699,185.222 75.974 C 184.536 75.182,183.644 74.370,183.644 74.538 M123.022 75.289 C 123.144 75.436,123.324 75.556,123.421 75.556 C 123.520 75.556,123.501 75.438,123.378 75.289 C 123.256 75.142,123.076 75.022,122.979 75.022 C 122.880 75.022,122.899 75.140,123.022 75.289 M242.247 75.920 C 241.157 76.850,240.973 76.935,240.829 76.578 C 240.759 76.404,240.736 76.405,240.725 76.583 C 240.695 77.078,241.267 76.999,241.914 76.420 C 242.281 76.091,242.780 75.691,243.024 75.531 C 243.267 75.370,243.424 75.194,243.372 75.140 C 243.320 75.085,242.814 75.436,242.247 75.920 M55.200 76.089 C 55.133 76.299,55.119 76.511,55.168 76.560 C 55.216 76.609,55.311 76.477,55.378 76.267 C 55.445 76.056,55.459 75.844,55.410 75.795 C 55.361 75.747,55.267 75.879,55.200 76.089 M125.061 77.022 C 125.756 77.731,126.538 78.591,126.799 78.933 C 127.059 79.276,127.276 79.459,127.281 79.340 C 127.289 79.115,124.140 75.733,123.922 75.733 C 123.853 75.733,124.365 76.313,125.061 77.022 M54.794 77.671 C 54.672 78.199,54.608 78.667,54.652 78.711 C 54.773 78.832,55.141 77.350,55.074 77.009 C 55.042 76.845,54.916 77.143,54.794 77.671 M67.060 77.517 C 66.941 77.707,66.848 78.043,66.852 78.264 C 66.858 78.550,66.933 78.462,67.111 77.962 C 67.395 77.166,67.377 77.010,67.060 77.517 M66.506 79.315 C 66.399 79.623,66.321 80.163,66.333 80.515 L 66.356 81.156 66.484 80.444 C 66.555 80.053,66.674 79.513,66.748 79.244 C 66.934 78.572,66.746 78.627,66.506 79.315 M54.252 80.415 C 54.122 81.182,54.051 81.844,54.094 81.887 C 54.223 82.016,54.616 79.924,54.550 79.457 C 54.517 79.218,54.383 79.649,54.252 80.415 M262.588 79.733 C 262.585 79.929,262.698 80.409,262.839 80.800 C 262.983 81.199,263.098 81.355,263.101 81.156 C 263.103 80.960,262.990 80.480,262.850 80.089 C 262.706 79.690,262.591 79.534,262.588 79.733 M127.289 79.797 C 127.289 79.892,127.349 79.997,127.422 80.030 C 127.610 80.113,128.671 82.299,128.812 82.891 C 128.910 83.306,129.244 83.765,129.244 83.486 C 129.244 83.163,127.659 79.852,127.439 79.716 C 127.356 79.665,127.289 79.702,127.289 79.797 M96.822 81.490 C 96.565 81.928,96.356 82.407,96.356 82.554 C 96.356 82.702,96.276 82.873,96.178 82.933 C 96.080 82.994,96.003 83.138,96.006 83.255 C 96.013 83.542,96.533 82.838,96.533 82.540 C 96.533 82.410,96.739 81.978,96.991 81.580 C 97.242 81.181,97.412 80.819,97.368 80.775 C 97.324 80.731,97.078 81.053,96.822 81.490 M110.400 81.181 L 109.778 81.431 110.489 81.310 C 110.880 81.244,111.520 81.132,111.911 81.061 L 112.622 80.933 111.822 80.932 C 111.382 80.932,110.742 81.044,110.400 81.181 M113.689 81.159 C 115.086 81.474,115.465 81.470,114.578 81.150 C 114.187 81.010,113.587 80.900,113.244 80.906 C 112.731 80.917,112.809 80.961,113.689 81.159 M151.156 81.375 C 151.620 81.412,152.380 81.412,152.844 81.375 C 153.309 81.338,152.929 81.309,152.000 81.309 C 151.071 81.309,150.691 81.338,151.156 81.375 M171.867 81.376 C 172.380 81.411,173.220 81.411,173.733 81.376 C 174.247 81.340,173.827 81.310,172.800 81.310 C 171.773 81.310,171.353 81.340,171.867 81.376 M246.806 81.376 C 247.372 81.411,248.252 81.411,248.762 81.375 C 249.272 81.339,248.809 81.311,247.733 81.311 C 246.658 81.311,246.241 81.341,246.806 81.376 M66.009 81.890 C 65.754 82.804,65.834 92.306,66.100 92.711 C 66.313 93.036,66.323 93.021,66.221 92.533 C 65.981 91.380,65.911 84.242,66.127 82.903 C 66.343 81.560,66.272 80.946,66.009 81.890 M108.987 81.696 C 108.024 82.224,106.188 84.521,106.348 84.998 C 106.380 85.097,106.634 84.752,106.912 84.233 C 107.543 83.050,107.977 82.573,108.933 82.011 C 109.926 81.427,109.972 81.156,108.987 81.696 M115.378 81.507 C 115.378 81.553,115.616 81.714,115.907 81.864 C 116.198 82.015,116.773 82.477,117.186 82.891 C 117.882 83.590,117.904 83.599,117.482 83.022 C 116.906 82.234,115.378 81.133,115.378 81.507 M149.333 81.600 C 148.980 81.828,149.424 81.828,149.956 81.600 L 150.311 81.447 149.956 81.437 C 149.760 81.432,149.480 81.505,149.333 81.600 M170.133 81.600 C 169.896 81.753,169.896 81.772,170.133 81.772 C 170.280 81.772,170.520 81.695,170.667 81.600 C 170.904 81.447,170.904 81.428,170.667 81.428 C 170.520 81.428,170.280 81.505,170.133 81.600 M244.622 81.600 C 244.283 81.819,244.648 81.819,245.333 81.600 L 245.778 81.458 245.333 81.443 C 245.089 81.434,244.769 81.505,244.622 81.600 M250.133 81.600 C 250.280 81.695,250.520 81.772,250.667 81.772 C 250.904 81.772,250.904 81.753,250.667 81.600 C 250.520 81.505,250.280 81.428,250.133 81.428 C 249.896 81.428,249.896 81.447,250.133 81.600 M147.990 82.039 C 147.800 82.182,147.728 82.302,147.831 82.305 C 147.934 82.309,148.094 82.239,148.187 82.151 C 148.280 82.062,148.516 81.952,148.711 81.905 C 149.058 81.821,149.058 81.819,148.701 81.798 C 148.499 81.787,148.179 81.895,147.990 82.039 M155.091 82.149 C 155.733 82.654,156.139 83.470,156.278 84.533 L 156.394 85.422 156.419 84.577 C 156.453 83.447,155.529 81.778,154.870 81.778 C 154.724 81.778,154.817 81.933,155.091 82.149 M168.790 82.039 C 168.600 82.182,168.528 82.302,168.631 82.305 C 168.734 82.309,168.894 82.239,168.987 82.151 C 169.080 82.062,169.316 81.952,169.511 81.905 C 169.858 81.821,169.858 81.819,169.501 81.798 C 169.299 81.787,168.979 81.895,168.790 82.039 M176.277 82.356 C 176.622 82.673,177.017 83.253,177.155 83.644 C 177.334 84.151,177.409 84.239,177.414 83.949 C 177.427 83.311,176.341 81.787,175.869 81.781 C 175.748 81.779,175.932 82.038,176.277 82.356 M243.122 82.050 C 242.696 82.372,242.750 82.372,243.644 82.050 C 244.209 81.846,244.264 81.793,243.911 81.791 C 243.667 81.790,243.311 81.907,243.122 82.050 M251.522 82.178 C 251.840 82.398,252.257 82.818,252.449 83.111 C 252.662 83.437,252.798 83.535,252.799 83.363 C 252.800 83.001,251.582 81.778,251.220 81.778 C 251.059 81.778,251.185 81.945,251.522 82.178 M263.136 97.200 L 263.111 112.711 258.226 112.711 L 253.342 112.711 253.293 98.533 C 253.254 87.159,253.198 84.285,253.010 84.000 C 252.791 83.668,252.784 83.673,252.913 84.089 C 252.989 84.333,253.094 90.893,253.148 98.667 L 253.244 112.800 257.956 112.850 C 260.547 112.877,262.847 112.856,263.067 112.802 L 263.467 112.704 263.449 98.174 C 263.439 90.183,263.371 83.204,263.296 82.667 C 263.222 82.129,263.150 88.669,263.136 97.200 M146.581 82.638 C 145.554 83.209,145.608 82.306,145.649 98.133 L 145.686 112.800 145.776 98.045 L 145.867 83.290 146.756 82.805 C 147.244 82.538,147.524 82.325,147.378 82.332 C 147.231 82.338,146.872 82.476,146.581 82.638 M167.556 82.677 C 166.523 83.336,166.578 82.462,166.578 98.167 L 166.578 112.711 161.601 112.711 L 156.624 112.711 156.577 99.244 L 156.530 85.778 156.532 99.289 L 156.533 112.800 161.600 112.800 L 166.667 112.800 166.756 98.142 L 166.844 83.485 167.614 82.898 C 168.449 82.261,168.414 82.130,167.556 82.677 M241.570 82.759 C 241.212 82.994,240.858 83.290,240.784 83.416 C 240.710 83.541,240.804 83.514,240.992 83.354 C 241.180 83.195,241.653 82.899,242.044 82.696 C 242.436 82.493,242.636 82.328,242.489 82.329 C 242.342 82.331,241.929 82.524,241.570 82.759 M53.815 85.556 C 53.759 86.753,53.775 88.533,53.851 89.511 C 53.972 91.055,53.993 90.770,54.017 87.333 C 54.048 82.931,53.972 82.262,53.815 85.556 M95.668 84.179 C 95.539 84.535,95.471 84.863,95.515 84.908 C 95.636 85.028,96.047 83.962,95.969 83.730 C 95.933 83.620,95.797 83.822,95.668 84.179 M187.818 98.133 C 187.818 106.200,187.840 109.500,187.867 105.467 C 187.893 101.433,187.893 94.833,187.867 90.800 C 187.840 86.767,187.818 90.067,187.818 98.133 M129.266 84.000 C 129.273 84.434,129.746 85.708,129.762 85.333 C 129.768 85.187,129.657 84.747,129.516 84.356 C 129.375 83.964,129.263 83.804,129.266 84.000 M240.617 93.956 C 240.617 99.627,240.639 101.972,240.667 99.168 C 240.694 96.364,240.694 91.724,240.667 88.857 C 240.639 85.990,240.617 88.284,240.617 93.956 M177.510 98.622 L 177.511 112.800 182.489 112.804 L 187.467 112.808 182.534 112.757 L 177.602 112.706 177.555 98.575 L 177.508 84.444 177.510 98.622 M312.889 84.531 C 312.889 84.669,315.903 87.644,316.043 87.644 C 316.113 87.644,315.454 86.924,314.578 86.044 C 313.006 84.466,312.889 84.360,312.889 84.531 M118.401 84.735 C 118.399 85.065,118.919 86.160,118.926 85.843 C 118.930 85.683,118.814 85.323,118.668 85.043 C 118.522 84.762,118.402 84.624,118.401 84.735 M95.138 85.919 C 95.006 86.371,94.940 86.844,94.991 86.970 C 95.042 87.097,95.089 86.996,95.097 86.747 C 95.105 86.497,95.198 86.207,95.304 86.101 C 95.410 85.994,95.470 85.725,95.437 85.502 C 95.392 85.197,95.319 85.300,95.138 85.919 M105.973 85.991 C 105.845 86.379,105.779 86.850,105.827 87.037 C 105.889 87.278,105.920 87.231,105.935 86.877 C 105.946 86.602,106.041 86.217,106.145 86.023 C 106.249 85.828,106.305 85.583,106.270 85.477 C 106.235 85.372,106.101 85.603,105.973 85.991 M129.807 86.044 C 129.803 86.289,129.907 87.009,130.038 87.644 C 130.178 88.323,130.280 88.580,130.286 88.267 C 130.291 87.973,130.187 87.253,130.055 86.667 C 129.923 86.080,129.811 85.800,129.807 86.044 M119.034 86.933 C 119.100 87.276,119.215 87.876,119.288 88.267 L 119.422 88.978 119.444 88.243 C 119.457 87.838,119.342 87.238,119.191 86.909 L 118.915 86.311 119.034 86.933 M94.598 88.583 C 94.316 90.203,94.363 96.505,94.669 98.044 C 94.805 98.729,94.876 98.929,94.826 98.489 C 94.590 96.405,94.550 89.998,94.766 88.844 C 94.890 88.183,94.947 87.599,94.893 87.545 C 94.839 87.491,94.706 87.958,94.598 88.583 M105.475 87.935 C 105.230 88.816,105.304 97.802,105.561 98.311 C 105.783 98.751,105.784 98.750,105.669 98.222 C 105.442 97.186,105.388 89.728,105.599 88.649 C 105.811 87.565,105.722 87.049,105.475 87.935 M317.224 88.978 C 317.873 89.613,318.460 90.133,318.530 90.133 C 318.599 90.133,318.141 89.613,317.511 88.978 C 316.881 88.342,316.294 87.822,316.206 87.822 C 316.118 87.822,316.576 88.342,317.224 88.978 M130.385 92.889 C 130.385 94.747,130.412 95.483,130.444 94.524 C 130.476 93.566,130.476 92.046,130.443 91.146 C 130.411 90.247,130.385 91.031,130.385 92.889 M119.540 92.978 C 119.540 94.689,119.566 95.389,119.599 94.533 C 119.632 93.678,119.632 92.278,119.599 91.422 C 119.566 90.567,119.540 91.267,119.540 92.978 M329.776 101.511 L 340.983 112.711 328.669 112.715 L 316.356 112.720 311.403 107.693 C 308.679 104.929,306.509 102.775,306.581 102.907 C 306.652 103.039,308.873 105.339,311.517 108.018 L 316.323 112.889 328.640 112.889 C 335.414 112.889,340.997 112.824,341.046 112.745 C 341.136 112.599,318.929 90.311,318.695 90.311 C 318.626 90.311,323.613 95.351,329.776 101.511 M54.074 92.711 C 54.073 92.907,54.177 93.667,54.305 94.400 C 54.513 95.583,54.541 95.643,54.555 94.933 C 54.564 94.493,54.460 93.733,54.324 93.244 C 54.188 92.756,54.075 92.516,54.074 92.711 M66.341 94.044 C 66.332 94.484,66.446 95.044,66.595 95.289 L 66.867 95.733 66.748 95.289 C 66.683 95.044,66.568 94.484,66.494 94.044 L 66.359 93.244 66.341 94.044 M54.586 95.911 C 54.581 96.224,55.289 98.905,55.404 99.010 C 55.465 99.066,55.461 98.871,55.394 98.578 C 55.327 98.284,55.189 97.644,55.087 97.156 C 54.912 96.318,54.592 95.523,54.586 95.911 M66.871 96.267 C 66.863 96.462,66.971 96.822,67.111 97.067 C 67.272 97.349,67.367 97.410,67.371 97.236 C 67.375 97.084,67.306 96.884,67.217 96.791 C 67.129 96.698,67.018 96.462,66.971 96.267 L 66.886 95.911 66.871 96.267 M300.543 97.042 C 300.929 97.419,301.277 97.700,301.317 97.665 C 301.411 97.585,300.150 96.356,299.974 96.356 C 299.901 96.356,300.157 96.664,300.543 97.042 M119.250 97.600 C 119.180 98.040,119.076 98.640,119.019 98.933 C 118.919 99.453,118.924 99.451,119.200 98.849 C 119.356 98.509,119.459 97.909,119.430 97.515 L 119.378 96.800 119.250 97.600 M130.154 97.321 C 130.143 97.607,130.060 98.087,129.971 98.387 C 129.440 100.173,129.097 102.046,129.578 100.533 C 130.074 98.973,130.363 97.542,130.263 97.147 C 130.201 96.904,130.168 96.956,130.154 97.321 M67.381 97.844 C 67.375 98.118,68.521 100.089,68.685 100.089 C 68.772 100.089,68.752 99.979,68.641 99.844 C 68.529 99.710,68.200 99.170,67.911 98.644 C 67.621 98.119,67.383 97.759,67.381 97.844 M301.898 98.299 C 302.125 98.586,302.431 98.870,302.578 98.932 C 302.724 98.994,302.569 98.759,302.232 98.411 C 301.488 97.643,301.337 97.592,301.898 98.299 M105.796 99.289 C 105.793 99.582,105.905 100.022,106.044 100.267 C 106.358 100.815,106.358 100.759,106.049 99.644 C 105.850 98.928,105.801 98.859,105.796 99.289 M55.468 99.313 C 55.466 99.642,55.985 100.737,55.993 100.420 C 55.997 100.260,55.880 99.900,55.734 99.620 C 55.588 99.340,55.468 99.202,55.468 99.313 M303.233 99.713 C 303.508 99.995,303.764 100.198,303.802 100.163 C 303.895 100.077,303.058 99.207,302.878 99.203 C 302.798 99.201,302.958 99.431,303.233 99.713 M94.944 99.733 C 94.941 99.880,95.052 100.360,95.191 100.800 C 95.329 101.240,95.447 101.440,95.452 101.244 C 95.457 101.049,95.346 100.569,95.205 100.178 C 95.064 99.787,94.947 99.587,94.944 99.733 M118.622 100.298 C 118.318 101.141,118.345 101.355,118.674 100.722 C 118.824 100.435,118.924 100.084,118.896 99.941 C 118.867 99.798,118.744 99.959,118.622 100.298 M68.800 100.389 C 68.800 101.211,72.784 103.613,73.818 103.415 C 74.168 103.348,74.157 103.334,73.731 103.313 C 73.461 103.300,73.101 103.219,72.931 103.134 C 72.761 103.049,72.254 102.816,71.804 102.616 C 71.355 102.416,70.495 101.797,69.893 101.241 C 69.292 100.684,68.800 100.301,68.800 100.389 M89.372 100.824 C 89.659 101.399,89.880 101.403,89.698 100.830 C 89.637 100.636,89.479 100.436,89.347 100.385 C 89.156 100.312,89.161 100.400,89.372 100.824 M304.000 100.298 C 304.000 100.358,304.520 100.935,305.156 101.580 C 305.791 102.225,306.311 102.691,306.311 102.616 C 306.311 102.540,305.791 101.963,305.156 101.333 C 304.520 100.703,304.000 100.237,304.000 100.298 M88.000 100.889 C 87.658 101.122,87.298 101.320,87.200 101.329 C 86.878 101.359,85.594 102.032,85.848 102.038 C 86.169 102.046,88.659 100.850,88.801 100.620 C 88.980 100.331,88.661 100.438,88.000 100.889 M56.006 100.824 C 56.003 100.886,56.120 101.166,56.266 101.446 C 56.412 101.726,56.532 101.831,56.532 101.678 C 56.533 101.418,56.018 100.581,56.006 100.824 M106.312 101.026 C 106.310 101.936,108.728 104.533,109.578 104.533 C 109.725 104.533,109.895 104.613,109.956 104.711 C 110.016 104.809,110.281 104.886,110.544 104.882 C 110.911 104.878,110.806 104.798,110.092 104.541 C 108.531 103.979,107.515 103.081,106.761 101.595 C 106.514 101.109,106.312 100.853,106.312 101.026 M118.008 101.763 C 117.876 102.017,117.379 102.624,116.905 103.112 C 116.432 103.600,116.118 104.000,116.209 104.000 C 116.558 104.000,118.541 101.593,118.350 101.402 C 118.295 101.347,118.141 101.509,118.008 101.763 M203.207 101.559 C 203.192 102.239,204.649 104.002,205.224 103.999 C 205.333 103.998,205.208 103.856,204.946 103.684 C 204.355 103.294,203.805 102.604,203.470 101.834 C 203.321 101.492,203.211 101.376,203.207 101.559 M89.864 102.534 C 89.905 103.048,90.028 103.608,90.137 103.779 C 90.345 104.105,90.285 103.625,89.941 102.222 C 89.812 101.693,89.800 101.740,89.864 102.534 M95.473 101.802 C 95.470 101.913,95.584 102.273,95.726 102.602 C 95.906 103.015,95.986 103.090,95.987 102.844 C 95.987 102.472,95.484 101.450,95.473 101.802 M128.891 102.153 C 128.521 103.177,128.095 104.102,127.696 104.752 C 127.259 105.464,127.190 105.682,127.455 105.518 C 127.752 105.335,129.312 101.875,129.165 101.728 C 129.116 101.679,128.993 101.871,128.891 102.153 M56.533 102.129 C 56.533 102.682,58.861 106.139,60.170 107.531 C 61.736 109.196,66.081 112.112,66.449 111.744 C 66.490 111.702,66.017 111.422,65.396 111.120 C 64.289 110.584,63.644 110.223,63.467 110.043 C 63.418 109.993,63.058 109.741,62.667 109.483 C 60.639 108.144,58.118 105.096,56.992 102.622 C 56.763 102.118,56.533 101.872,56.533 102.129 M84.711 102.266 C 83.220 102.779,82.934 102.915,83.323 102.924 C 83.537 102.929,83.755 102.864,83.808 102.779 C 83.860 102.694,84.220 102.574,84.608 102.512 C 84.996 102.450,85.362 102.319,85.423 102.222 C 85.552 102.012,85.426 102.020,84.711 102.266 M82.091 103.034 C 82.036 103.090,81.602 103.201,81.128 103.280 C 80.368 103.408,80.340 103.427,80.889 103.443 C 81.231 103.453,81.831 103.346,82.222 103.205 C 82.663 103.046,82.792 102.946,82.563 102.941 C 82.359 102.937,82.147 102.979,82.091 103.034 M192.915 103.289 C 192.913 103.533,193.020 104.213,193.152 104.800 C 193.309 105.496,193.395 105.682,193.400 105.333 C 193.404 105.040,193.297 104.360,193.163 103.822 C 193.029 103.284,192.917 103.044,192.915 103.289 M96.000 103.375 C 96.000 105.330,102.678 112.671,103.609 111.739 C 103.658 111.690,103.466 111.548,103.182 111.423 C 100.634 110.301,96.377 105.484,96.358 103.699 C 96.357 103.583,96.276 103.438,96.178 103.378 C 96.080 103.317,96.000 103.316,96.000 103.375 M74.629 103.676 C 75.008 103.827,78.835 103.820,79.546 103.668 C 79.834 103.606,78.778 103.556,77.198 103.556 C 75.618 103.556,74.462 103.610,74.629 103.676 M115.661 104.132 C 115.589 104.204,115.115 104.399,114.609 104.564 C 113.914 104.792,113.806 104.868,114.167 104.877 C 114.430 104.884,114.695 104.809,114.756 104.711 C 114.816 104.613,115.001 104.532,115.166 104.531 C 115.534 104.527,116.026 104.234,115.891 104.099 C 115.837 104.044,115.733 104.059,115.661 104.132 M205.767 104.252 C 205.970 104.417,206.410 104.524,206.834 104.511 L 207.556 104.489 206.844 104.359 C 206.453 104.288,205.973 104.171,205.778 104.100 C 205.427 103.973,205.427 103.975,205.767 104.252 M212.930 104.107 C 212.871 104.166,212.398 104.282,211.878 104.366 L 210.933 104.518 211.981 104.447 C 212.832 104.389,213.912 104.000,213.221 104.000 C 213.120 104.000,212.989 104.048,212.930 104.107 M90.341 105.156 C 90.333 105.547,90.445 106.267,90.589 106.756 L 90.851 107.644 90.738 106.756 C 90.676 106.267,90.565 105.547,90.491 105.156 L 90.356 104.444 90.341 105.156 M208.489 104.664 C 208.904 104.701,209.584 104.701,210.000 104.664 C 210.416 104.626,210.076 104.595,209.244 104.595 C 208.413 104.595,208.073 104.626,208.489 104.664 M111.689 105.018 C 112.056 105.057,112.656 105.057,113.022 105.018 C 113.389 104.980,113.089 104.949,112.356 104.949 C 111.622 104.949,111.322 104.980,111.689 105.018 M126.985 106.000 C 126.104 107.151,125.815 107.621,126.180 107.308 C 126.395 107.123,126.731 106.703,126.925 106.375 C 127.276 105.780,127.308 105.577,126.985 106.000 M193.422 106.026 C 193.422 107.536,196.350 111.287,198.254 112.217 C 199.428 112.790,200.888 113.304,201.007 113.186 C 201.053 113.140,200.785 113.006,200.412 112.888 C 198.774 112.371,197.081 111.393,196.092 110.394 C 195.624 109.921,194.844 108.831,194.844 108.649 C 194.844 108.553,194.784 108.447,194.711 108.415 C 194.527 108.333,193.992 107.215,193.853 106.621 C 193.756 106.205,193.422 105.745,193.422 106.026 M124.825 108.578 C 123.664 109.697,123.251 110.039,122.353 110.625 C 121.312 111.304,121.403 111.407,122.466 110.753 C 123.302 110.238,126.087 107.738,125.828 107.735 C 125.758 107.734,125.306 108.113,124.825 108.578 M90.876 109.251 L 90.844 110.147 89.867 110.659 C 89.329 110.940,88.918 111.199,88.953 111.234 C 89.064 111.346,90.879 110.339,90.964 110.119 C 91.008 110.002,91.014 109.558,90.976 109.131 L 90.907 108.356 90.876 109.251 M214.305 109.825 C 214.008 110.092,213.488 110.534,213.149 110.807 C 212.600 111.250,212.591 111.269,213.067 110.989 C 213.360 110.816,213.640 110.629,213.689 110.572 C 213.738 110.516,214.077 110.245,214.442 109.971 C 215.237 109.374,215.259 109.408,215.342 111.378 C 215.396 112.648,215.401 112.620,215.390 111.113 C 215.376 109.190,215.217 109.002,214.305 109.825 M87.922 111.561 C 87.478 111.897,87.642 111.895,88.291 111.557 C 88.571 111.411,88.680 111.293,88.533 111.296 C 88.387 111.298,88.111 111.418,87.922 111.561 M66.667 111.895 C 66.667 112.085,71.251 113.342,71.400 113.193 C 71.516 113.077,70.305 112.715,69.778 112.708 C 69.582 112.706,68.862 112.506,68.178 112.264 C 66.932 111.823,66.667 111.759,66.667 111.895 M86.400 112.011 C 85.201 112.417,84.070 112.711,83.700 112.715 C 83.474 112.716,82.889 112.836,82.400 112.980 L 81.511 113.243 82.311 113.133 C 84.542 112.826,88.542 111.766,87.185 111.841 C 86.998 111.852,86.644 111.928,86.400 112.011 M104.444 112.173 C 105.334 112.619,107.511 113.289,107.780 113.199 C 107.890 113.163,107.585 113.029,107.101 112.902 C 106.618 112.775,105.822 112.527,105.333 112.351 C 103.906 111.837,103.686 111.793,104.444 112.173 M119.733 112.009 C 119.538 112.099,119.147 112.256,118.864 112.358 C 118.582 112.460,118.391 112.584,118.441 112.634 C 118.491 112.684,118.962 112.528,119.488 112.288 C 120.014 112.048,120.364 111.850,120.267 111.849 C 120.169 111.847,119.929 111.920,119.733 112.009 M211.022 112.002 C 210.631 112.235,209.609 112.650,208.833 112.891 C 208.459 113.007,208.192 113.140,208.238 113.186 C 208.394 113.342,211.556 112.108,211.556 111.892 C 211.556 111.780,211.310 111.831,211.022 112.002 M116.800 112.928 C 116.458 113.030,116.271 113.147,116.385 113.188 C 116.499 113.230,116.979 113.145,117.452 113.000 C 117.995 112.833,118.148 112.737,117.867 112.740 C 117.622 112.742,117.142 112.826,116.800 112.928 M270.711 112.844 C 272.104 112.874,274.384 112.874,275.778 112.844 C 277.171 112.814,276.031 112.789,273.244 112.789 C 270.458 112.789,269.318 112.814,270.711 112.844 M72.889 113.446 C 73.524 113.508,75.204 113.558,76.622 113.558 C 78.040 113.558,79.720 113.508,80.356 113.446 C 80.991 113.384,79.311 113.333,76.622 113.333 C 73.933 113.333,72.253 113.384,72.889 113.446 M109.067 113.447 C 110.454 113.596,113.953 113.597,115.200 113.449 C 115.738 113.385,114.338 113.333,112.089 113.333 C 109.840 113.333,108.480 113.385,109.067 113.447 M202.044 113.451 C 203.212 113.606,206.277 113.606,207.289 113.452 C 207.729 113.384,206.530 113.330,204.622 113.331 C 202.703 113.332,201.552 113.386,202.044 113.451 " stroke="none" fill="#8287a2" fill-rule="evenodd"></path></g></svg>