<svg id="Camada_1" data-name="Camada 1" xmlns="http://www.w3.org/2000/svg" version="1.1" viewBox="0 0 520 520">
  <defs>
    <style>
      .cls-1 {
        stroke: #252c5b;
        stroke-miterlimit: 10;
      }

      .cls-1, .cls-2 {
        fill: #252c5b;
      }

      .cls-2, .cls-3, .cls-4, .cls-5 {
        stroke-width: 0px;
      }

      .cls-6 {
        opacity: .2;
      }

      .cls-3 {
        fill: #12448b;
      }

      .cls-4 {
        fill: #2e9937;
      }

      .cls-5 {
        fill: #fff;
      }
    </style>
  </defs>
  <g>
    <path class="cls-5" d="M450.62,12.91H70.04c-22.08,0-40.14,19.28-40.14,42.84v348.25c0,23.56,18.06,42.84,40.14,42.84h257.71l74.73,60.98-6.15-60.98h54.29c22.08,0,40.14-19.28,40.14-42.84V55.75c0-23.56-18.06-42.84-40.14-42.84Z"/>
    <path class="cls-3" d="M446.22,8.78H74.44c-26.74,0-48.41,23.13-48.41,51.66v338.86c0,28.53,21.67,51.66,48.41,51.66h250.52c.97,0,1.9.34,2.67.96l71.53,58.38c3.07,2.5,7.45-.13,7.04-4.23l-5.04-49.92c-.28-2.77,1.76-5.19,4.37-5.19h40.69c26.74,0,48.41-23.13,48.41-51.66V60.44c0-28.53-21.67-51.66-48.41-51.66ZM327.58,442.7H74.44c-22.46,0-40.67-19.43-40.67-43.4V60.44c0-23.97,18.21-43.4,40.66-43.4h371.79c22.46,0,40.66,19.43,40.66,43.4v338.86c0,23.97-18.21,43.4-40.67,43.4h-49.31c-2.61,0-4.65,2.42-4.37,5.19l4.03,39.92c.41,4.1-3.97,6.73-7.04,4.23l-59.28-48.37c-.77-.63-1.71-.96-2.67-.96Z"/>
    <g class="cls-6">
      <path class="cls-1" d="M43.49,23.75c-1.21,4.06-1.88,8.39-1.88,12.87l-1.08,349.29c0,23.42,8.16,42.61,30.11,46.03l257.14-.14h0l73.05,59.6,1.66,16.41-74.73-60.98c-.11-.08-9.36,0-10.65,0l-247.4-.49c-21.95,0-39.8-19.05-39.8-42.47v-184.12c0-59.68-.75-166.27.87-172.83,3.51-14.28,10.69-21.12,12.72-23.17Z"/>
    </g>
  </g>
  <g>
    <polygon class="cls-3" points="260.09 121.43 219.27 162.31 219.22 284.82 382.71 121.43 260.09 121.43"/>
    <polygon class="cls-2" points="219.22 284.82 300.96 366.67 423.58 366.67 219.22 162.31 219.22 284.82"/>
    <polygon class="cls-4" points="137.47 80.56 137.47 366.67 219.22 284.82 219.22 80.56 137.47 80.56"/>
  </g>
</svg>
